<?xml version="1.0" encoding="utf-8"?>
<!-- Generator: Adobe Illustrator 19.0.0, SVG Export Plug-In . SVG Version: 6.00 Build 0)  -->
<svg version="1.1" id="Слой_1" xmlns="http://www.w3.org/2000/svg" xmlns:xlink="http://www.w3.org/1999/xlink" x="0px" y="0px"
	 viewBox="0 0 44 44" style="enable-background:new 0 0 44 44;" xml:space="preserve">
<style type="text/css">
	.st0{fill-rule:evenodd;clip-rule:evenodd;fill:#fff;opacity:0.5;}
	.st2{fill-rule:evenodd;clip-rule:evenodd;fill:#11cb8b;opacity: 0.15;}
	.st1{fill-rule:evenodd;clip-rule:evenodd;fill:#18bd7b;}
</style>
<path class="st0" d="M22,3.999c9.941,0,18,8.058,18,18c0,9.942-8.059,18-18,18c-9.941,0-18-8.059-18-18
	C4,12.057,12.059,3.999,22,3.999z"/>
<path class="st2" d="M22,0c12.15,0,22,9.849,22,22c0,12.151-9.85,22-22,22C9.85,44,0,34.151,0,22C0,9.849,9.85,0,22,0z"/>
<path class="st1" d="M22,11.083c6.029,0,10.916,4.887,10.916,10.915c0,6.029-4.887,10.916-10.916,10.916
	c-6.029,0-10.916-4.887-10.916-10.916C11.084,15.97,15.971,11.083,22,11.083z"/>
</svg>
