<?xml version="1.0" encoding="utf-8"?>
<!-- Generator: Adobe Illustrator 19.0.0, SVG Export Plug-In . SVG Version: 6.00 Build 0)  -->
<svg version="1.1" id="Слой_1" xmlns="http://www.w3.org/2000/svg" xmlns:xlink="http://www.w3.org/1999/xlink" x="0px" y="0px"
	 viewBox="0 0 17 33" style="enable-background:new 0 0 17 33;" xml:space="preserve">
<style type="text/css">
	.st0{fill:#010202;}
</style>
<path class="st0" d="M16.9934998,12.0237999l-0.6940002-4.2125001C16.2576008,7.5572,16.0405006,7.3713999,15.7861996,7.3713999
	h-5.7248993V3.6856c0-0.2911,0.2334995-0.5267,0.5204-0.5267h5.2044992c0.2874012,0,0.5202999-0.2358999,0.5202999-0.527V0.5253
	c0-0.2905-0.2328987-0.5261-0.5202999-0.5261h-5.2044992c-2.0088005,0-3.6431003,1.6535-3.6431003,3.6863999v3.6857998H1.2137001
	C0.9593,7.3713999,0.7422,7.5572,0.7003,7.8112998l-0.6938,4.2125001c-0.0251,0.1531,0.0173,0.3093004,0.1163,0.4274998
	c0.0987,0.1177006,0.244,0.1858006,0.397,0.1858006h0.5466999l1.0153,19.8621979
	c0.0143001,0.2801018,0.2429001,0.4999008,0.5197999,0.4999008H14.3982c0.2770996,0,0.5056-0.219799,0.5198002-0.4999008
	l0.9989996-19.5421982c0.0001001-0.0017996,0.0003004-0.0039997,0.0003004-0.0064001l0.0160999-0.3135996h0.5465994
	c0.153101,0,0.2982998-0.0681,0.3971996-0.1858006C16.9759998,12.3331003,17.0186996,12.1768999,16.9934998,12.0237999z
	 M7.9794998,3.6856C7.9794998,2.233,9.1468,1.0526,10.5817003,1.0526h4.6838999v1.0529h-4.6838999
	c-0.8610001,0-1.5614004,0.7086999-1.5614004,1.5801001v3.6857998H7.9794998V3.6856z M1.6546,8.4243002h13.6906996l0.5204,3.1596994
	H1.1342L1.6546,8.4243002z M14.8910999,12.6371002L14.8821001,12.8132
	c-1.3793001,3.6735001-4.1764002,6.7521992-7.6859999,8.4540005c-0.2592001,0.1257992-0.3687,0.4403992-0.2444,0.7026005
	c0.0893998,0.1886997,0.2756,0.2987995,0.4696999,0.2987995c0.0752997,0,0.1521001-0.0165997,0.2245998-0.0517006
	c1.8871002-0.9151001,3.5636005-2.1732998,4.9829998-3.7392006c0.8137007-0.8981991,1.5194006-1.8716984,2.1125002-2.9127989
	l-0.2727003,5.3343c-2.1348991,4.6689987-6.4948997,7.9895992-11.4885998,8.7821999l-0.306-5.9838009
	c0.9879999-0.1273003,1.9649-0.3449993,2.9105997-0.6513996C5.8585,22.9575005,6.0095,22.6616001,5.9218001,22.3838997
	c-0.0878-0.2765999-0.3808002-0.4296989-0.6544003-0.3407001C4.4070001,22.3223,3.5188,22.5219002,2.6201999,22.6415005
	L2.1087,12.6371002H14.8910999z M3.0957999,31.9459991L3.0341001,30.7388c2.6230001-0.3973007,5.1250997-1.4445,7.2640004-3.0466003
	c1.6046991-1.2019005,2.9765997-2.6938,4.0474997-4.3845997l-0.4414997,8.6383991H3.0957999z"/>
</svg>
