<?xml version="1.0" encoding="utf-8"?>
<!-- Generator: Adobe Illustrator 19.0.0, SVG Export Plug-In . SVG Version: 6.00 Build 0)  -->
<svg version="1.1" id="Слой_1" xmlns="http://www.w3.org/2000/svg" xmlns:xlink="http://www.w3.org/1999/xlink" x="0px" y="0px"
	 viewBox="0 0 27 29" style="enable-background:new 0 0 27 29;" xml:space="preserve">
<style type="text/css">
	.st0{fill:#010202;}
</style>
<path class="st0" d="M24.7639008,12.7452002c-0.1891003-0.2311001-0.3917999-0.4544001-0.6076012-0.6707001l2.2968998,0.3824997
	c0.0257015,0.0043001,0.0515003,0.0061998,0.0771008,0.0061998c0.1105003,0,0.2182999-0.0388994,0.3036995-0.1110001
	c0.1055012-0.0894995,0.1662006-0.2202997,0.1662006-0.3588991c0-1.2903004-0.5582008-2.6346006-1.6139011-3.8882008
	c-0.2985001-0.3540998-0.5962982-0.6537995-0.8521996-0.8906999l1.1079006-0.2771997
	c0.1527004-0.0374999,0.2761002-0.1503,0.3286991-0.2979999c0.0528011-0.1485004,0.0276012-0.3136001-0.0667992-0.4396
	C24.8754997,4.8285999,23.2329998,4.1188002,22.1578999,3.7802L22.781601,3.365
	c0.1370983-0.0913999,0.2162991-0.2479,0.2086983-0.4124999C22.9827003,2.7876999,22.8894005,2.6396999,22.7444,2.5606
	c-1.0344009-0.5585999-2.4183006-0.8207-4.1119003-0.7767c-0.5821991,0.0152-1.0979996,0.0648-1.4855995,0.1141
	C17.1718998,1.8024,17.198,1.7032,17.2238998,1.6045001C17.2996006,1.3137,17.3589993,1.0792,17.4001007,0.909
	c0.0881996-0.3667,0.1285-0.534-0.0178013-0.7251c-0.0887985-0.1158-0.2278996-0.1847-0.3741989-0.1847
	c-1.369401,0-2.7246008,0.7838-3.5081005,1.9546c-0.7835999-1.1708-2.1387997-1.9546-3.5082998-1.9546
	c-0.1463003,0-0.2853003,0.0687-0.3743,0.1847C9.4712,0.375,9.5114002,0.5423,9.5997,0.909
	C9.6408005,1.0792,9.7002001,1.3137,9.776,1.6045001C9.8016996,1.7032,9.8277998,1.8026,9.8528996,1.898
	C9.4652996,1.849,8.9495001,1.7991,8.3673,1.7841001C6.6728001,1.7404,5.2898998,2.0023,4.2554002,2.5609
	c-0.1449003,0.0788-0.2383003,0.227-0.2459002,0.3922C4.0019002,3.1171,4.0811,3.2736001,4.2182999,3.365l0.6236,0.4154999
	c-1.0749998,0.3383002-2.7175,1.0481-3.7458999,2.4191003C1.0015,6.3256001,0.9765,6.4906998,1.0292,6.6392002
	C1.0817,6.7869,1.2053,6.8997002,1.358,6.9372001l1.1078,0.2771997C2.2098999,7.4513001,1.9121,7.7509999,1.6136,8.1050997
	C0.5579,9.3586998-0.0003,10.7030001-0.0003,11.9933004c0,0.1382999,0.0608,0.2693996,0.1662,0.3586998
	c0.0854,0.0720997,0.1932,0.1111994,0.3037,0.1111994c0.0256,0,0.0515-0.0018997,0.0771-0.0063992l2.2969-0.3823004
	c-0.2160001,0.2163-0.4184999,0.4396-0.6076,0.6703997C0.9031,14.3718996,0.1719,16.4104004,0.0008,18.9771996
	c-0.0105,0.1562004,0.0576,0.3073997,0.1814,0.4027996c0.124,0.0960007,0.2873,0.1239014,0.4359,0.0740013l0.9365-0.3120003
	c0.3009,3.1711998,1.1445,6.1343994,2.0695,7.191c0.0975001,0.1114998,0.2416999,0.1707993,0.3892,0.1595001
	c0.1476002-0.0118008,0.2811999-0.0918999,0.3607001-0.2168007c0.2073998-0.3256989,0.4323997-0.6738987,0.6121001-0.9475994
	c1.6724997,2.1564007,3.7186995,3.0874004,3.8116999,3.1292c0.1236,0.0552006,0.2649002,0.0538006,0.3879004-0.0023994
	c0.1229-0.0566006,0.2154999-0.1636009,0.2539997-0.2936001c0.0838995-0.2819004,0.1789999-0.5925999,0.2613001-0.8513012
	c1.6362,1.2325001,3.6098995,1.6595001,3.7019997,1.6788006c0.0015001,0.0002995,0.0029001,0.0002995,0.0042,0.0004997
	c0.0129004,0.0023994,0.0257998,0.0049,0.0390005,0.0062008c0.0024996,0.0002995,0.0050993,0.0007992,0.0077,0.0007992
	c0.0149994,0.0018997,0.0302,0.0027008,0.0454998,0.0027008c0.0001001,0,0.0002003,0,0.0003996,0
	c0.0003004,0,0.0004005,0,0.0005999,0c0.0152006,0,0.0304003-0.0008011,0.0455008-0.0027008
	c0.0024996,0,0.0050993-0.0004997,0.0075998-0.0007992c0.0131998-0.0013008,0.0261002-0.0038013,0.0388994-0.0062008
	c0.0014-0.0002003,0.0029001-0.0004997,0.0042-0.0004997c0.0922003-0.0193005,2.0657005-0.4463005,3.7021999-1.6788006
	c0.0823002,0.2584,0.1774998,0.5694008,0.261301,0.8513012c0.0383987,0.1299992,0.1309986,0.2367001,0.2539997,0.2936001
	c0.1229992,0.0562,0.2642994,0.0576,0.3880005,0.0021c0.0928993-0.0415001,2.1388988-0.9722004,3.8115997-3.1289005
	c0.1796989,0.2737007,0.4048004,0.6219006,0.6120987,0.9475994c0.079401,0.1249008,0.2130013,0.2049999,0.3607006,0.2166004
	c0.147501,0.0109005,0.2917004-0.0480003,0.3892002-0.1592999c0.9249001-1.0566006,1.7686005-4.0200996,2.0695992-7.191
	l0.9364014,0.3120003c0.1485996,0.0499001,0.3118992,0.0216999,0.4358997-0.0740013
	c0.1238995-0.0953999,0.1919003-0.2465992,0.1814003-0.4027996C26.8279991,16.4104004,26.0967999,14.3718996,24.7639008,12.7452002z
	 M18.1072006,17.4043007c-0.1254005-0.3973007-0.2672005-0.7646999-0.3993015-1.0770016
	c-0.2046986-0.483799-0.4027996-0.8748989-0.5328999-1.1184988c-0.2768993-0.5179005-0.3355999-0.5801001-0.4870987-0.6431007
	c-0.1753006-0.0723991-0.3781013-0.0326996-0.512701,0.1016006c-0.1746998,0.1739998-0.1837997,0.4517002-0.0264988,0.6363001
	c0.2046986,0.3126001,1.3920994,2.4986992,1.3920994,4.2059002c0,0.9380989-0.1800003,1.6294003-0.5349998,2.0534992
	c-0.264801,0.316-0.6303997,0.4764996-1.0871,0.4764996c-1.0500002,0-1.9489002-0.7828999-1.9489002-1.0268002v-0.5009995
	c0-0.5699005,0.4637003-1.0335999,1.0337-1.0335999c0.1592999,0,0.3078003-0.0804005,0.3943005-0.2143993
	c0.0866995-0.1331997,0.0995998-0.3017998,0.0344-0.4470997c-0.0234003-0.0525017-0.5892-1.2804012-1.9322004-1.2804012
	c-1.3429003,0-1.9088001,1.2278996-1.9322996,1.2804012c-0.0651007,0.1449986-0.0522003,0.3139,0.0344,0.4470997
	c0.0865993,0.1339989,0.2349997,0.2143993,0.3943996,0.2143993c0.5698996,0,1.0335999,0.4636993,1.0335999,1.0335999v0.5009995
	c0,0.2439003-0.8987999,1.0268002-1.9488001,1.0268002c-0.4566994,0-0.8223-0.1604996-1.0871-0.4764996
	c-0.3548994-0.424099-0.5347996-1.1154003-0.5347996-2.0534992c0-1.707201,1.1873999-3.8936005,1.3919001-4.2059002
	c0.1568995-0.1844006,0.1482-0.4618006-0.026-0.6360006c-0.1345005-0.1342993-0.3373003-0.1742992-0.5129004-0.1019001
	c-0.1517,0.0630007-0.2103996,0.1249008-0.4874001,0.6431007C9.6949997,15.4524002,9.4968004,15.8437004,9.2921,16.3272991
	C9.1599998,16.6396008,9.0183001,17.007,8.8928003,17.4043007c-0.0980005-0.1704998-0.2024002-0.339901-0.3085003-0.5114002
	C8.0290003,15.9938002,7.4547,15.0644999,7.4547,13.4965c0-1.4179001,0.3023-2.6648998,0.8687997-3.6813002
	c0.0538006-0.0549002,0.0927-0.1222,0.1142006-0.1956997c0.6260996-1.0268002,1.5366993-1.7983003,2.6903-2.2437L11.1661997,7.3613
	c0.5535002-0.1989002,1.0469007-0.1760998,1.3898001,0.0646C12.8618002,7.6408,13.0302,8.0172005,13.0302,8.4856997v0.5013008
	c0,0.2593994,0.2103004,0.4695997,0.4699001,0.4695997c0.2594995,0,0.4698-0.2102003,0.4698-0.4695997V8.4856997
	c0-0.4684992,0.1683998-0.8448997,0.4742994-1.0597997c0.3427-0.2406998,0.8364-0.2635002,1.3850002-0.0665002l0.0376005,0.0145001
	c1.1569004,0.4465003,2.0690994,1.2190003,2.6959991,2.2472005c0.0214996,0.0718994,0.0599003,0.1385994,0.1126003,0.1929998
	c0.5675011,1.0166998,0.8700008,2.2636995,0.8700008,3.6823997c0,1.5675001-0.5741997,2.4973001-1.1296005,3.3957996
	C18.3097,17.0643997,18.2052002,17.2338009,18.1072006,17.4043007z M13.5,19.2350006
	c-0.1858997-0.2182007-0.4184999-0.3962002-0.6822004-0.5170002C12.9869003,18.5846996,13.2128,18.4759007,13.5,18.4759007
	s0.5129995,0.108799,0.6821003,0.2420998C13.9183998,18.8388004,13.6857996,19.0167999,13.5,19.2350006z M13.5,21.9776001
	c0.1415997,0.1439991,0.3128996,0.2828007,0.5115995,0.4111996c0.5788002,0.3754997,1.2740002,0.5902004,1.9070005,0.5902004
	c0.1937008,0,0.3794994-0.0200996,0.5564003-0.0583992C16.1860008,23.8377991,14.9407997,24.5515995,13.5,24.5515995
	c-1.4408998,0-2.6862001-0.7138004-2.9751997-1.6309986c0.1768999,0.0382996,0.3626995,0.0583992,0.5563993,0.0583992
	c0.6330004,0,1.3281002-0.2147007,1.9072008-0.5902004C13.1870003,22.2604008,13.3583002,22.1215992,13.5,21.9776001z
	 M4.1891999,10.9385996c-0.1652999-0.3948994-0.2393-1.0450993-0.2475998-1.5806999
	c0.5076001-0.0964994,1.5206001-0.1913996,2.4254997,0.3128004C5.5556998,10.0580997,4.8312001,10.4793997,4.1891999,10.9385996z
	 M22.8106995,10.9385996c-0.6420002-0.4591999-1.3663998-0.8804998-2.1777-1.2678995
	c0.9050999-0.5042,1.9183998-0.4090004,2.4253998-0.3129997C23.0499992,9.8935003,22.9761009,10.5437002,22.8106995,10.9385996z
	 M3.7481,7.3657999C3.898,7.2600002,3.9721999,7.0763998,3.9382999,6.8957C3.9044001,6.7156,3.7686,6.5714002,3.5905001,6.5265999
	L2.3399999,6.2143002c1.4561-1.3780003,3.6949003-1.7704,3.7196-1.7747002c0.1902003-0.0321002,0.3417001-0.1763,0.3822002-0.3648
	c0.0404-0.1887-0.0383-0.3822-0.1988001-0.4892001L5.4636998,3.0659001c2.1200004-0.6873002,4.9045005-0.1386001,4.9355998-0.1329
	C10.559,2.9658999,10.7241001,2.9133999,10.8355999,2.7946c0.1114998-0.1192,0.1534004-0.2869999,0.1108999-0.4446001
	C10.8202,1.8838,10.6875,1.381,10.592,1.0055C11.6653004,1.2413,12.6658001,2.0797999,13.0595999,3.138
	c0.0018005,0.0046,0.0039997,0.0088999,0.0059004,0.0130999C13.0688,3.1596999,13.0721998,3.168,13.0760002,3.1761
	c0.0032997,0.0060999,0.0066996,0.0128,0.0100994,0.0190001c0.0037003,0.0072,0.0073004,0.0142,0.0114002,0.0209
	S13.1058998,3.2289,13.1101999,3.2356c0.0042,0.0060999,0.0084,0.0123,0.0129004,0.0185001
	c0.0045996,0.0060999,0.0092993,0.0117998,0.0141001,0.0179c0.0049,0.0058999,0.0099993,0.0123999,0.0153999,0.0177
	C13.1573,3.2953999,13.1622,3.2999001,13.1671,3.3046999C13.1730003,3.3109,13.1791,3.3168001,13.1855001,3.323
	c0.0046997,0.0042,0.0095997,0.0083001,0.0144997,0.0123c0.0068998,0.0053999,0.0139999,0.0109999,0.0212002,0.0166001
	c0.0050001,0.0035,0.0099001,0.0066998,0.0149002,0.0105c0.0075998,0.0051,0.0152998,0.0100999,0.0233002,0.0149999
	C13.2648001,3.3803,13.2705002,3.3835001,13.276,3.3864999C13.2838001,3.3908,13.2915001,3.3951001,13.2994003,3.3985
	c0.0065994,0.003,0.0134001,0.0059001,0.0201998,0.0088999c0.0056,0.0021,0.0108995,0.0048001,0.0165997,0.0067
	c0.0018005,0.0005,0.0037003,0.0011001,0.0057001,0.0019c0.0074997,0.0027001,0.0151005,0.0056002,0.0227003,0.0077002
	c0.0072002,0.0021999,0.0144997,0.0040998,0.0218,0.0058999c0.0072994,0.0019,0.0148001,0.0035,0.0223999,0.0051
	C13.4164,3.4361,13.4239998,3.438,13.4315996,3.4388001C13.4389,3.4396,13.4463997,3.4401,13.4539003,3.4409001
	c0.0077,0.0007999,0.0155001,0.0019,0.0232,0.0023999c0.0075998,0.0002999,0.0151997,0,0.0228996,0s0.0152998,0.0002999,0.0228996,0
	c0.0077-0.0005,0.0153999-0.0016,0.0230999-0.0021C13.5535002,3.4401,13.5611,3.4396,13.5684004,3.4389999
	C13.5759001,3.438,13.5832996,3.4363,13.5907001,3.4347C13.5985003,3.4333999,13.6063004,3.4315,13.6138,3.4296
	c0.007-0.0016,0.0138998-0.0034001,0.0208998-0.0056c0.0079002-0.0023999,0.0159998-0.0053,0.0237999-0.0080001
	c0.0017004-0.0007999,0.0036001-0.0010998,0.0053005-0.0019c0.0054998-0.0016,0.0103998-0.0042999,0.0156994-0.0061998
	C13.6868,3.4047,13.6940002,3.4017999,13.7011003,3.3982999C13.7087002,3.3951001,13.7159004,3.3908,13.7233,3.3870001
	C13.7292995,3.3838,13.7353001,3.3806,13.7412004,3.3773999c0.0074997-0.0049,0.0147991-0.0096998,0.0221996-0.0147998
	c0.0052004-0.0037,0.0106001-0.0072,0.0157995-0.0107c0.007-0.0056002,0.0138006-0.0110002,0.0204-0.0161002
	C13.8048,3.3318,13.8099003,3.3271999,13.8149004,3.3227c0.0060997-0.0058999,0.0118999-0.0115001,0.0176992-0.0169001
	c0.0051003-0.0053999,0.0102005-0.0104001,0.0151005-0.0163c0.0051994-0.0051,0.0100994-0.0113001,0.0148001-0.0169001
	c0.0050001-0.0065,0.0098-0.0121,0.0145998-0.0184999C13.8815002,3.2479,13.8856001,3.2416999,13.8896999,3.2358
	c0.0044003-0.0060999,0.0087004-0.0130999,0.0128002-0.0197999C13.9064999,3.2096,13.9102001,3.2026,13.9138002,3.1954
	c0.0036001-0.0058999,0.0071001-0.0129001,0.0102997-0.0193C13.9279003,3.168,13.9312,3.1600001,13.9344997,3.1514001
	c0.0019007-0.0043001,0.0042-0.0088,0.0059004-0.0134001c0.3936996-1.0580001,1.3942995-1.8964,2.4677-2.1325002
	C16.3125992,1.3813,16.1798,1.8838,16.0534992,2.3501999C16.0109997,2.5076001,16.0529995,2.6751001,16.1644001,2.7946
	c0.1112995,0.1187999,0.2765999,0.1710999,0.4361,0.1385999c0.0314007-0.0058999,2.8157997-0.5546,4.9358997,0.1330001
	l-0.7793007,0.5197001c-0.1602993,0.1066999-0.2388992,0.3002-0.1987,0.4887002
	c0.0403004,0.1880999,0.1917,0.3325996,0.3815002,0.3649998c0.0251999,0.0046,2.264101,0.3966999,3.7203007,1.7750001
	l-1.2507,0.3122997C23.2317009,6.5716,23.0962009,6.7156,23.0620003,6.8957
	c-0.0340004,0.1803999,0.0401993,0.3639998,0.1896,0.4700999c0.0259991,0.0188003,2.4160995,1.7453003,2.7663002,4.0662003
	l-2.2537003-0.3760004C24.0370007,10.1963997,24,9.1215,23.9929008,8.9654999
	c-0.0090008-0.1964998-0.1396999-0.3667002-0.3276005-0.4258995C23.5620003,8.5064001,21.3204002,7.822,19.6240997,9.2251997
	c-0.0844994-0.0347996-0.1697998-0.0690994-0.2560005-0.1026001C18.6375008,7.9252,17.5650005,7.0225,16.2000008,6.4958
	l-0.0477009-0.0180001c-0.8498001-0.3058-1.6482-0.2417998-2.2483997,0.1796002
	c-0.1535997,0.1082997-0.2882004,0.2374997-0.4036999,0.3841c-0.1157007-0.1463003-0.2504005-0.2758002-0.4038-0.3841
	c-0.6002007-0.4216003-1.3986006-0.4854002-2.2531004-0.178l-0.0483999,0.0183001
	C9.4327002,7.0233002,8.3614998,7.9257998,7.6314998,9.1229c-0.0858998,0.0334997-0.171,0.0677996-0.2551999,0.1022997
	C5.6801,7.822,3.4384,8.5066004,3.335,8.5396004C3.1472001,8.5987997,3.0163,8.7690001,3.0074999,8.9654999
	C3.0002999,9.1215,2.9633,10.1963997,3.2362001,11.0559998L0.9823,11.4320002
	C1.3324,9.1107998,3.7225001,7.3843002,3.7481,7.3657999z M25.1755009,18.0615005
	c-0.1375999-0.0453014-0.2886009-0.0251999-0.4094009,0.0551987c-0.1205997,0.0805016-0.1973,0.2126007-0.2077007,0.3565006
	c-0.1114998,1.5422993-0.3741989,3.1436005-0.7395992,4.5088005c-0.2411995,0.9008999-0.5167999,1.6562004-0.7912998,2.1807995
	c-0.0314007-0.0485992-0.0634003-0.0979004-0.0955009-0.1471996c-0.1436996-0.2206001-0.2606983-0.3971996-0.3472996-0.524601
	c-0.1854-0.2730999-0.2973003-0.4373989-0.5569992-0.4408989c-0.1581001-0.0002995-0.3080006,0.0760994-0.3966999,0.2063999
	c-1.1287003,1.6651001-2.5939999,2.6590004-3.3362999,3.0891991c-0.0207005-0.0669994-0.0421009-0.1355991-0.0636997-0.2042999
	c-0.2519016-0.801899-0.3117008-0.9927998-0.5943012-1.0702c-0.1563988-0.0429001-0.3267994-0.0016994-0.4459,0.1082001
	c-1.3327999,1.2301006-3.2442999,1.7571011-3.6911993,1.8672009c-0.4470005-0.1096001-2.3531008-0.6331005-3.6903-1.8668995
	c-0.1190004-0.1104012-0.2893-0.1514015-0.4461002-0.1085014c-0.2826004,0.0774002-0.3424006,0.268301-0.5942001,1.0702
	c-0.0216999,0.0687008-0.0431004,0.1373005-0.0636997,0.2042999c-0.7425003-0.4305-2.2076001-1.424099-3.3360004-3.0888996
	C5.2817998,24.1278992,5.1346998,24.0498009,4.9789,24.0498009c-0.0022001,0-0.0043001,0-0.0064998,0
	c-0.2597003,0.0037994-0.3717003,0.1680984-0.5571003,0.4411983c-0.0865998,0.1271-0.2034998,0.3035011-0.3473001,0.524601
	c-0.0320997,0.0492992-0.0640998,0.0984001-0.0954998,0.1471996C3.6982,24.6378994,3.4224,23.8829002,3.1812,22.9820004
	C2.8158,21.6166,2.5532,20.0154991,2.4418001,18.4731998C2.4312,18.3290005,2.3545001,18.1972008,2.234,18.1166992
	C2.1131001,18.0361004,1.9622,18.0160007,1.8245,18.0615005l-0.8226,0.2741985c0.2341-2.0346985,0.8785-3.6739988,1.9612-4.9951992
	c0.9498-1.1596003,2.2846003-2.1268997,4.0595002-2.9391003c-0.3329,0.9218006-0.5077,1.9610004-0.5077,3.0954008
	c0,1.8341999,0.7040997,2.9738989,1.2698998,3.8898001c0.4113002,0.6654987,0.7361999,1.1912003,0.7361999,1.8271999
	c0,0.0214996,0.0019999,0.0429001,0.0047998,0.0635986C8.5219002,19.3547993,8.5197001,19.4330997,8.5197001,19.5098
	c0,1.1648998,0.2536001,2.0585003,0.7538996,2.6562996c0.0799999,0.0951004,0.1659002,0.1822014,0.257,0.2609997
	c-0.0053997,0.0292015-0.0085993,0.0582008-0.0085993,0.0890007c0,0.8250008,0.4348001,1.5900002,1.2242994,2.1534996
	c0.7414999,0.5298996,1.7196007,0.8218002,2.7537003,0.8218002c1.0341997,0,2.0121002-0.2919006,2.7537003-0.8218002
	c0.7894001-0.5634995,1.2243004-1.3284988,1.2243004-2.1534996c0-0.0307999-0.0032005-0.0597992-0.0086002-0.0890007
	c0.0910988-0.0787983,0.1770992-0.1658993,0.257-0.2609997c0.5002995-0.5977993,0.7539005-1.4916992,0.7539005-2.6562996
	c0-0.0767002-0.0023003-0.1550007-0.0061016-0.2324009c0.0028-0.0206985,0.0049-0.042099,0.0049-0.0635986
	c0-0.6359997,0.3248005-1.1617012,0.7361012-1.8271999c0.5656986-0.9159012,1.2698994-2.0554008,1.2698994-3.8898001
	c0-1.1344004-0.174799-2.1736002-0.5079002-3.0954008c1.7749996,0.8122005,3.1098003,1.7795,4.0597,2.9391003
	c1.0827007,1.3212004,1.7271996,2.9605007,1.9612007,4.9951992L25.1755009,18.0615005z"/>
<path class="st0" d="M9.4905996,12.0874004c-0.2595997,0-0.4698992,0.2103996-0.4698992,0.4695997v0.9398003
	c0,0.2591991,0.2102995,0.4695997,0.4698992,0.4695997c0.2595005,0,0.4698-0.2104006,0.4698-0.4695997v-0.9398003
	C9.9603996,12.2978001,9.7501001,12.0874004,9.4905996,12.0874004z"/>
<path class="st0" d="M17.5093002,12.0874004c-0.2595005,0-0.4698009,0.2103996-0.4698009,0.4695997v0.9398003
	c0,0.2591991,0.2103004,0.4695997,0.4698009,0.4695997c0.2595997,0,0.4699001-0.2104006,0.4699001-0.4695997v-0.9398003
	C17.9792004,12.2978001,17.7688999,12.0874004,17.5093002,12.0874004z"/>
</svg>
