<?xml version="1.0" encoding="utf-8"?>
<!-- Generator: Adobe Illustrator 19.0.0, SVG Export Plug-In . SVG Version: 6.00 Build 0)  -->
<svg version="1.1" id="Слой_1" xmlns="http://www.w3.org/2000/svg" xmlns:xlink="http://www.w3.org/1999/xlink" x="0px" y="0px"
	 viewBox="0 0 16 13" style="enable-background:new 0 0 16 13;" xml:space="preserve">
<style type="text/css">
	.st0{fill:#010202;}
</style>
<path class="st0" d="M14.9983997-0.0006H0.9997c-0.552,0-1,0.4476-1,0.9998v11.0004997c0,0.5524006,0.448,0.9995003,1,0.9995003
	h13.9987001c0.5528002,0,0.9998999-0.4470997,0.9998999-0.9995003V0.9992C15.9982996,0.447,15.5511999-0.0006,14.9983997-0.0006z
	 M14.4984999,11.4989004H1.4996001V3.8498001l5.8564,4.9148998C7.5425,8.9207001,7.7711,8.9991999,7.9991002,8.9991999
	c0.2283998,0,0.4564996-0.0784998,0.6430001-0.2344999l5.8563995-4.9148998V11.4989004z M14.4984999,1.8915L7.9991002,7.3462
	L1.4996001,1.8915V1.4991h12.9988995V1.8915z"/>
</svg>
