<svg xmlns="http://www.w3.org/2000/svg" xmlns:xlink="http://www.w3.org/1999/xlink" preserveAspectRatio="xMidYMid" width="8" height="12" viewBox="0 0 8 12">
  <defs>
    <style>
      .cls-1 {
        fill: #333;
        fill-rule: evenodd;
      }
    </style>
  </defs>
  <path d="M6.358,8.390 C5.587,9.796 4.832,10.964 4.800,11.013 L4.250,11.861 C4.195,11.947 4.101,11.998 4.000,11.998 C3.899,11.998 3.805,11.947 3.750,11.861 L3.200,11.013 C3.168,10.963 2.407,9.785 1.642,8.390 C0.522,6.346 -0.000,4.973 -0.000,4.071 C-0.000,1.825 1.794,-0.001 4.000,-0.001 C6.205,-0.001 8.000,1.825 8.000,4.071 C8.000,4.973 7.478,6.346 6.358,8.390 ZM4.000,0.609 C2.125,0.609 0.599,2.162 0.599,4.071 C0.599,4.844 1.126,6.196 2.165,8.093 C2.919,9.468 3.669,10.628 3.700,10.677 L4.000,11.139 L4.300,10.677 C4.331,10.628 5.075,9.478 5.834,8.093 C6.873,6.196 7.400,4.844 7.400,4.071 C7.400,2.162 5.875,0.609 4.000,0.609 ZM4.000,6.304 C2.777,6.304 1.782,5.291 1.782,4.045 C1.782,2.801 2.777,1.787 4.000,1.787 C5.223,1.787 6.218,2.801 6.218,4.045 C6.218,5.291 5.223,6.304 4.000,6.304 ZM4.000,2.398 C3.107,2.398 2.381,3.137 2.381,4.045 C2.381,4.954 3.107,5.694 4.000,5.694 C4.892,5.694 5.618,4.954 5.618,4.045 C5.618,3.137 4.892,2.398 4.000,2.398 Z" class="cls-1"/>
</svg>
