<?xml version="1.0" encoding="utf-8"?>
<!-- Generator: Adobe Illustrator 19.0.0, SVG Export Plug-In . SVG Version: 6.00 Build 0)  -->
<svg version="1.1" id="Layer_1" xmlns="http://www.w3.org/2000/svg" xmlns:xlink="http://www.w3.org/1999/xlink" x="0px" y="0px"
	 viewBox="-265.56299 399.87799 49.82 44.752" style="enable-background:new -265.56299 399.87799 49.82 44.752;"
	 xml:space="preserve">
<g>
	<path d="M-216.78198,418.04898h-7.51201V410.539c0-0.573-0.465-1.039-1.037-1.039h-2.13899c-0.576,0-1.041,0.466-1.041,1.039
		v7.50998h-7.51201c-0.57199,0-1.039,0.46701-1.039,1.04102v2.13901c0,0.57397,0.46701,1.039,1.039,1.039h7.51201v7.51398
		c0,0.57401,0.465,1.039,1.041,1.039h2.13899c0.57201,0,1.037-0.465,1.037-1.039V422.267h7.51201c0.57199,0,1.039-0.465,1.039-1.039
		v-2.13901C-215.74298,418.51498-216.20999,418.04898-216.78198,418.04898z"/>
	<path d="M-242.02599,424.63498c-1.58-1.11899-3.01601-2.75998-3.041-3.26398c0-0.918,0.082-1.35703,2.14101-2.961
		c2.66199-2.08401,4.12799-4.82401,4.12799-7.71902c0-2.625-0.802-4.957-2.16699-6.595h1.05899
		c0.21901,0,0.43401-0.06799,0.60901-0.19598l2.955-2.14099c0.36699-0.263,0.521-0.73203,0.381-1.16101
		c-0.14101-0.42801-0.537-0.72-0.98801-0.72h-13.216c-1.446,0-2.91499,0.255-4.35699,0.75101
		c-4.81599,1.66098-8.18401,5.76498-8.18401,9.978c0,5.96899,4.62399,10.49298,10.80501,10.63501
		c-0.121,0.47299-0.18201,0.939-0.18201,1.396c0,0.91998,0.233,1.79099,0.713,2.633c-0.056,0-0.11,0-0.17,0
		c-5.89198,0-11.21001,2.89099-13.22899,7.19299c-0.526,1.11902-0.79401,2.25-0.79401,3.367
		c0,1.086,0.27899,2.13101,0.82599,3.11301c1.26901,2.26999,3.99402,4.03098,7.677,4.961
		c1.90102,0.47998,3.94402,0.72501,6.065,0.72501c1.90601,0,3.72301-0.246,5.403-0.73203c5.23801-1.521,8.625-5.37698,8.625-9.82797
		C-236.96799,429.79898-238.34099,427.242-242.02599,424.63498z M-258.71698,434.41199c0-3.10699,3.94699-5.832,8.446-5.832h0.12099
		c0.979,0.01199,1.93401,0.15601,2.834,0.43201c0.30901,0.21298,0.60701,0.41599,0.89301,0.61099
		c2.084,1.42001,3.461,2.35699,3.84399,3.86099c0.09001,0.379,0.13501,0.75803,0.13501,1.125
		c0,3.86902-2.88501,5.83002-8.578,5.83002C-255.33699,440.439-258.71698,437.793-258.71698,434.41199z M-254.62299,405.05499
		c0.703-0.80301,1.62399-1.22699,2.658-1.22699l0.11699,0.00198c2.92101,0.086,5.716,3.341,6.23001,7.25601
		c0.28899,2.19199-0.19901,4.25299-1.30101,5.509c-0.705,0.80499-1.61299,1.22897-2.689,1.22897c0,0,0,0-0.002,0h-0.047
		c-2.86101-0.08798-5.716-3.46698-6.22701-7.37698C-256.17099,408.26099-255.71098,406.29599-254.62299,405.05499z"/>
</g>
</svg>
