<?xml version="1.0" encoding="utf-8"?>
<!-- Generator: Adobe Illustrator 19.0.0, SVG Export Plug-In . SVG Version: 6.00 Build 0)  -->
<svg version="1.1"
	 id="Layer_1" xmlns:cc="http://creativecommons.org/ns#" xmlns:dc="http://purl.org/dc/elements/1.1/" xmlns:inkscape="http://www.inkscape.org/namespaces/inkscape" xmlns:rdf="http://www.w3.org/1999/02/22-rdf-syntax-ns#" xmlns:sodipodi="http://sodipodi.sourceforge.net/DTD/sodipodi-0.dtd" xmlns:svg="http://www.w3.org/2000/svg"
	 xmlns="http://www.w3.org/2000/svg" xmlns:xlink="http://www.w3.org/1999/xlink" x="0px" y="0px"
	 viewBox="-41 173.78001 512 494.21997" style="enable-background:new -41 173.78001 512 494.21997;" xml:space="preserve">
<g id="g5274">
	<path id="path24_3_" d="M303.96301,418.52988c-2.92404-56.94113-45.20438-91.18997-96.26256-91.18997h-1.92235
		c-58.91953,0-91.59044,46.33182-91.59044,98.96606c0,58.92142,39.5247,96.14478,91.368,96.14478
		c57.78229,0,95.78683-42.33643,98.53687-92.40451l-0.12985-11.51636H303.96301z M206.06435,276.37054
		c39.36795,0,76.38808,17.40305,103.56108,44.65323v0.10159c0-13.07678,8.8049-22.9397,21.02322-22.9397l3.09418-0.02075
		c19.10861,0,23.04398,18.08957,23.04398,23.81198l0.08655,203.37039c-1.35178,13.32056,13.74411,20.19745,22.10809,11.64581
		c32.6611-33.56064,71.72363-172.53091-20.30188-253.03241c-85.76358-75.06931-200.84286-62.70409-262.04437-20.5166
		C31.56795,308.31595-10.05673,407.64188,30.38068,500.92429c44.08657,101.73941,170.2296,132.08585,245.2059,101.81284
		c37.96405-15.32208,55.49261,35.99335,16.06482,52.76392C232.08206,680.87152,66.25605,678.3111-11.20167,544.12524
		c-52.33653-90.59827-49.56321-250.0097,89.25239-332.59601c106.1814-63.19913,246.18445-45.7072,330.60211,42.45448
		c88.24088,92.1646,83.0853,264.75934-2.97223,331.84943c-38.99872,30.48944-96.92407,0.82764-96.55859-43.59351l-0.39651-14.52155
		c-27.15344,26.94281-63.29375,42.66333-102.66173,42.66333c-77.78253,0-146.22623-68.42249-146.22623-146.21857
		c0-78.54431,68.4437-147.79269,146.22623-147.79269l0,0"/>
</g>
</svg>
