<svg xmlns="http://www.w3.org/2000/svg" xmlns:xlink="http://www.w3.org/1999/xlink" viewBox="0 0 202.15 202.15"><defs><style>.cls-1{isolation:isolate}.cls-2{fill:#16ca8c}.cls-10,.cls-11,.cls-2,.cls-4,.cls-5,.cls-6,.cls-8,.cls-9{fill-rule:evenodd}.cls-12,.cls-3,.cls-4{fill:#a74100;mix-blend-mode:multiply}.cls-3{opacity:.28}.cls-12,.cls-4{opacity:.65}.cls-5{fill:#64c4de;mix-blend-mode:overlay}.cls-6{fill:#37eda7}.cls-7{fill:#0ea068}.cls-8{fill:url(#linear-gradient)}.cls-9{fill:url(#linear-gradient-2)}.cls-10{fill:url(#linear-gradient-3)}.cls-11{fill:url(#linear-gradient-4)}.cls-13{fill:#f3e8df}.cls-14{fill:url(#linear-gradient-5)}.cls-15{fill:url(#linear-gradient-6)}.cls-16{fill:url(#linear-gradient-7)}</style><linearGradient id="linear-gradient" x1="616.55" y1="225.03" x2="616.55" y2="223.99" gradientUnits="userSpaceOnUse"><stop offset="0" stop-color="#ffe815"/><stop offset="1" stop-color="#e2ac13"/></linearGradient><linearGradient id="linear-gradient-2" x1="616.55" y1="253.67" x2="616.55" y2="252.63" xlink:href="#linear-gradient"/><linearGradient id="linear-gradient-3" x1="635.51" y1="252.47" x2="635.51" y2="251.43" xlink:href="#linear-gradient"/><linearGradient id="linear-gradient-4" x1="598.38" y1="279.9" x2="598.38" y2="278.86" xlink:href="#linear-gradient"/><linearGradient id="linear-gradient-5" x1="101.92" y1="69.94" x2="117.96" y2="92.08" gradientUnits="userSpaceOnUse"><stop offset="0" stop-color="#ff5c5d"/><stop offset=".34" stop-color="#db231a"/><stop offset=".7" stop-color="#d52820"/><stop offset="1" stop-color="#cc3029"/></linearGradient><linearGradient id="linear-gradient-6" x1="139.11" y1="97.08" x2="155.15" y2="119.22" xlink:href="#linear-gradient-5"/><linearGradient id="linear-gradient-7" x1="69.45" y1="123.67" x2="85.49" y2="145.82" xlink:href="#linear-gradient-5"/></defs><title>2icon</title><g class="cls-1"><g id="Слой_1" data-name="Слой 1"><path class="cls-2" d="M745.64 229.51A101.14 101.14 0 1 0 648 356.87a102.16 102.16 0 0 0 11.58-.66A101.11 101.11 0 0 0 749 259.6q.07-1.91.07-3.82a101.25 101.25 0 0 0-3.43-26.27z" transform="translate(-546.94 -154.71)"/><path class="cls-3" d="M749.09 255.79q0 1.91-.07 3.82a101.09 101.09 0 0 1-89.43 96.6 102.16 102.16 0 0 1-11.58.66 100.77 100.77 0 0 1-28.37-4l-39.9-38.57 120.15-131.85 45.75 47.06a101.25 101.25 0 0 1 3.45 26.28z" transform="translate(-546.94 -154.71)"/><path class="cls-4" d="M648 165.88a89.91 89.91 0 1 0 0 179.81 91.07 91.07 0 0 0 10.3-.58 89.95 89.95 0 0 0 79.55-85.93q.06-1.7.06-3.39A89.9 89.9 0 0 0 648 165.88z" transform="translate(-546.94 -154.71)"/><path class="cls-5" d="M648 167a88.76 88.76 0 1 0 88.71 92.12c0-1.12.06-2.23.06-3.35A88.76 88.76 0 0 0 648 167z" transform="translate(-546.94 -154.71)"/><path class="cls-2" d="M648 174a81.77 81.77 0 1 0 0 163.54 83 83 0 0 0 9.37-.53 81.8 81.8 0 0 0 72.34-78.15c0-1 .06-2.06.06-3.09A81.76 81.76 0 0 0 648 174z" transform="translate(-546.94 -154.71)"/><path class="cls-6" d="M714.05 232.12a2.57 2.57 0 0 1-2.39 2.73H585.32a2.57 2.57 0 0 1-2.39-2.73v-7.53a2.57 2.57 0 0 1 2.39-2.72h126.34a2.57 2.57 0 0 1 2.39 2.72v7.53z" transform="translate(-546.94 -154.71)"/><rect class="cls-7" x="35.99" y="67.15" width="130.24" height="11.3" rx="2.37" ry="2.37"/><path class="cls-8" d="M650.17 233.17H585.3a2.37 2.37 0 0 1-2.37-2.37v-6.56a2.37 2.37 0 0 1 2.37-2.37h64.87v11.3z" transform="translate(-546.94 -154.71)"/><path class="cls-9" d="M650.17 261.81H585.3a2.37 2.37 0 0 1-2.37-2.37v-6.56a2.37 2.37 0 0 1 2.37-2.37h64.87v11.31z" transform="translate(-546.94 -154.71)"/><path class="cls-6" d="M714.05 259.56a2.57 2.57 0 0 1-2.39 2.72H585.32a2.58 2.58 0 0 1-2.39-2.72V252a2.57 2.57 0 0 1 2.39-2.73h126.34a2.57 2.57 0 0 1 2.39 2.73v7.53z" transform="translate(-546.94 -154.71)"/><rect class="cls-7" x="35.99" y="94.59" width="130.24" height="11.31" rx="2.37" ry="2.37"/><path class="cls-6" d="M714.05 287a2.57 2.57 0 0 1-2.39 2.72H585.32a2.57 2.57 0 0 1-2.39-2.72v-7.53a2.57 2.57 0 0 1 2.39-2.73h126.34a2.57 2.57 0 0 1 2.39 2.73V287z" transform="translate(-546.94 -154.71)"/><path class="cls-7" d="M38.37 122h125.48a2.37 2.37 0 0 1 2.37 2.37V131a2.38 2.38 0 0 1-2.37 2.38H38.37A2.38 2.38 0 0 1 36 131v-6.6a2.38 2.38 0 0 1 2.37-2.4z"/><path class="cls-10" d="M688.09 260.6H585.3a2.37 2.37 0 0 1-2.37-2.37v-6.56a2.37 2.37 0 0 1 2.37-2.37h102.79v11.3z" transform="translate(-546.94 -154.71)"/><path class="cls-11" d="M613.83 288H585.3a2.37 2.37 0 0 1-2.37-2.37v-6.56a2.37 2.37 0 0 1 2.37-2.37h28.53V288z" transform="translate(-546.94 -154.71)"/><circle class="cls-12" cx="105.12" cy="74.3" r="14.23"/><circle class="cls-13" cx="103.96" cy="72.41" r="13.07"/><circle class="cls-14" cx="103.96" cy="72.77" r="8.59"/><circle class="cls-12" cx="142.32" cy="101.44" r="14.23"/><circle class="cls-13" cx="141.15" cy="99.55" r="13.07"/><circle class="cls-15" cx="141.16" cy="99.9" r="8.59"/><circle class="cls-12" cx="72.66" cy="128.04" r="14.23"/><circle class="cls-13" cx="71.5" cy="126.15" r="13.07"/><circle class="cls-16" cx="71.5" cy="126.5" r="8.59"/></g></g></svg>