<svg xmlns="http://www.w3.org/2000/svg" viewBox="0 0 202.15 202.15"><defs><style>.cls-1{isolation:isolate}.cls-2{fill:#16ca8c;fill-rule:evenodd}.cls-3,.cls-4{fill:#a74100}.cls-3{opacity:.28}.cls-3,.cls-4,.cls-7{mix-blend-mode:multiply}.cls-4{opacity:.65}.cls-5,.cls-8{fill:#ffc3b3}.cls-6{fill:#ed1c24}.cls-7{fill:#aa211a;opacity:.34}.cls-8{opacity:.51}</style></defs><title>3icon</title><g class="cls-1"><g id="Слой_1" data-name="Слой 1"><path class="cls-2" d="M1104.06 252.31a101.07 101.07 0 1 0-101 104.55 102.24 102.24 0 0 0 11.58-.66c2.09-.25 4.16-.54 6.2-.91a101 101 0 0 0 83.22-95.69c.07-1.27.07-2.54.07-3.82s-.02-2.31-.07-3.47z" transform="translate(-901.98 -154.71)"/><path class="cls-3" d="M1104.13 255.79c0 1.27 0 2.54-.07 3.82a101 101 0 0 1-83.22 95.69l-52.54-54.06 94.29-91.6 41.47 42.68c.05 1.15.07 2.31.07 3.47z" transform="translate(-901.98 -154.71)"/><path class="cls-4" d="M1041.74 207.63a40.79 40.79 0 0 0-37.25 24.15 40.81 40.81 0 0 0-78.07 16.67c0 1.38.07 2.74.2 4.09 0 0 .8 40.18 78.38 80.61 77.56-40.44 77.36-80.61 77.36-80.61.13-1.36.2-2.71.2-4.09a40.82 40.82 0 0 0-40.82-40.82zm-104.17 37.1c.06.1.1.21.16.31s-.16.16-.25.24c.02-.19.06-.37.09-.55z" transform="translate(-901.98 -154.71)"/><path class="cls-5" d="M967.5 209.08a9 9 0 0 0-9 10.7 8.52 8.52 0 0 0-14.88 3.22 10.46 10.46 0 0 0-5.71 15.46 13 13 0 1 0 17.74.51 9.51 9.51 0 0 0 1.73-7.22 8.14 8.14 0 0 0 3-7.87 9.14 9.14 0 1 0 7.12-14.8z" transform="translate(-901.98 -154.71)"/><path class="cls-6" d="M1079.08 245.79c.12-1.32.19-2.65.19-4a39.83 39.83 0 0 0-76.2-16.27 39.84 39.84 0 0 0-76.2 16.27c0 1.35.07 2.67.19 4 0 0 .78 39.22 76.51 78.69 75.7-39.47 75.52-78.68 75.52-78.68zm-111.24-35.07a6.54 6.54 0 1 1-6.53 6.55 6.53 6.53 0 0 1 6.53-6.55zm-20.43 48.92a7.08 7.08 0 0 1-1.85.26 6.85 6.85 0 0 1-6.57-5 45 45 0 0 1-1.63-10.07c-.62-16.1 9.32-24 9.81-24.42a6.83 6.83 0 0 1 8.46 10.71c-.36.31-4.66 4.16-4.64 12.44a29.8 29.8 0 0 0 1.13 7.68 6.83 6.83 0 0 1-4.73 8.42zm0 0" transform="translate(-901.98 -154.71)"/><path class="cls-7" d="M1003.57 321.56c-33.88-18.21-51.21-36-60.06-49.25.68.1 65.9 56.16 128.5-25.22.65-.85 0 2.16-.16 3.34v.68c-.04.25-1.7 34.64-68.28 70.45z" transform="translate(-901.98 -154.71)"/><path class="cls-8" d="M1039.31 205.16s-21.72 1.84-33.93 22.29l2 3.34s10.92-19.95 31.93-25.63z" transform="translate(-901.98 -154.71)"/></g></g></svg>