<svg xmlns="http://www.w3.org/2000/svg" viewBox="0 0 202.15 202.15"><defs><style>.cls-1{fill:none}.cls-2{isolation:isolate}.cls-3{fill:#16ca8c;fill-rule:evenodd}.cls-4,.cls-6{fill:#a74100}.cls-4{opacity:.28}.cls-10,.cls-4,.cls-6{mix-blend-mode:multiply}.cls-5{clip-path:url(#clip-path)}.cls-6{opacity:.65}.cls-7{fill:#dbccc1}.cls-8{fill:#757575}.cls-9{fill:#f54d46}.cls-10{fill:#aa211a;opacity:.34}.cls-11{fill:#9a9795}.cls-12{fill:#f3e8df}.cls-13{fill:#fff}.cls-14{fill:url(#linear-gradient)}.cls-15{fill:url(#linear-gradient-2)}.cls-16{fill:#6ceaff}.cls-17{fill:#3994b7}</style><clipPath id="clip-path" transform="translate(-171.46 -154.71)"><circle class="cls-1" cx="273.47" cy="256.16" r="100.14"/></clipPath><linearGradient id="linear-gradient" x1="269.32" y1="519.32" x2="382.74" y2="519.32" gradientTransform="rotate(41.49 668.241 291.687)" gradientUnits="userSpaceOnUse"><stop offset="0" stop-color="#80daec"/><stop offset="1" stop-color="#45abce"/></linearGradient><linearGradient id="linear-gradient-2" x1="417.8" y1="508.37" x2="417.8" y2="523.92" gradientTransform="rotate(41.49 668.241 291.687)" gradientUnits="userSpaceOnUse"><stop offset="0" stop-color="#ffd522"/><stop offset=".48" stop-color="#f2ffbd"/><stop offset="1" stop-color="#ffd522"/></linearGradient></defs><title>1icon</title><g class="cls-2"><g id="Слой_1" data-name="Слой 1"><path class="cls-3" d="M272.53 154.71a101.08 101.08 0 0 0 0 202.15 102.23 102.23 0 0 0 11.58-.66 101.11 101.11 0 0 0 89.42-96.6q.07-1.91.07-3.82a101.07 101.07 0 0 0-101.07-101.07z" transform="translate(-171.46 -154.71)"/><path class="cls-4" d="M373.54 259.6a101.1 101.1 0 0 1-89.42 96.6l-66.8-68.73 94.29-91.61z" transform="translate(-171.46 -154.71)"/><g class="cls-5"><path class="cls-6" d="M348.71 298.92a102.69 102.69 0 0 1-24.42 26.47l-6.57-6.39a.55.55 0 0 1-.16-.16v-.07a3.06 3.06 0 0 1-.46-.65.31.31 0 0 0 0-.09 4.57 4.57 0 0 1-.25-.81c-.37-2 .69-4.77 2.6-7.72l-1.66-1.5-11.53-10.65c-26.56 19.3-63.5 18.65-86.93-3l-.95-.9-.92-.83c-26-24-25.55-64.79 1.06-91.06s69.27-28.13 95.28-4.13c.32.3.62.6.92.9l1 .83c24 22.18 25.43 58.62 4.57 84.77l11.28 10.4h.09l1.59 1.45c.46-.3.92-.55 1.36-.81h.07c.51-.28 1-.53 1.52-.76a1 1 0 0 0 .16-.09c.53-.23 1-.41 1.54-.6a9.5 9.5 0 0 1 1.34-.32h.28a6.55 6.55 0 0 1 1.13-.07h.09a3.25 3.25 0 0 1 1.09.18l.21.07a4.06 4.06 0 0 1 .76.41.55.55 0 0 0 .12.07.76.76 0 0 1 .21.16l1 .9z" transform="translate(-171.46 -154.71)"/><path class="cls-7" transform="rotate(-48.51 64.659 403.797)" d="M312.62 272.24h18.83v37.28h-18.83z"/><path class="cls-8" d="M329.76 310.28l-12.88-11.39c2.43-9.13 12.53-14.18 12.53-14.18l12.89 11.39z" transform="translate(-171.46 -154.71)"/><path class="cls-9" d="M342.5 333.15l-24.9-23c-6.77-6 16.2-32 23-26l21.7 18.33" transform="translate(-171.46 -154.71)"/><path class="cls-10" d="M318.84 308.77c.46-.16 1.72-1.89 4-2.95l24.9 22.82c-3.45 3.14-28.9-19.87-28.9-19.87z" transform="translate(-171.46 -154.71)"/><circle class="cls-11" cx="263.12" cy="237.21" r="65.85" transform="rotate(-48.51 5.746 350.14)"/><circle class="cls-12" cx="261.16" cy="235.47" r="65.85" transform="rotate(-48.51 3.769 348.394)"/><circle class="cls-13" cx="261.16" cy="235.47" r="60.28" transform="rotate(-48.51 3.769 348.394)"/><path class="cls-14" d="M303.64 273a56.71 56.71 0 1 1-4.92-80 56.7 56.7 0 0 1 4.92 80z" transform="translate(-171.46 -154.71)"/><path class="cls-15" d="M319.24 311.57l-1-.93a.84.84 0 0 1-.17-.19A57.62 57.62 0 0 1 341 284.51a1.11 1.11 0 0 1 .21.15l1.05.9a57.59 57.59 0 0 0-23.02 26.01z" transform="translate(-171.46 -154.71)"/><path class="cls-13" d="M213.47 236.56a3.91 3.91 0 1 0 7.81.14 42 42 0 0 1 47.39-40.87 3.91 3.91 0 1 0 1-7.75 49.79 49.79 0 0 0-56.22 48.49zm3.53 19.16a50.54 50.54 0 0 0 4.11 8.1 3.91 3.91 0 1 0 6.62-4.15 42.72 42.72 0 0 1-3.46-6.83 4 4 0 0 0-.32-.64 3.91 3.91 0 0 0-6.95 3.52zm0 0" transform="translate(-171.46 -154.71)"/><rect class="cls-16" x="65.17" y="60.74" width="29.02" height="7.3" rx="2.18" ry="2.18"/><rect class="cls-16" x="65.17" y="86.97" width="29.02" height="7.3" rx="2.18" ry="2.18"/><rect class="cls-16" x="97.02" y="86.97" width="29.02" height="7.3" rx="2.18" ry="2.18"/><rect class="cls-16" x="65.17" y="99.89" width="23.12" height="7.3" rx="2.18" ry="2.18"/><rect class="cls-16" x="97.02" y="60.74" width="13.47" height="7.3" rx="2.18" ry="2.18"/><rect class="cls-16" x="113.59" y="60.74" width="13.47" height="7.3" rx="2.18" ry="2.18"/><path class="cls-16" d="M238.81 235.71h33.8a2.18 2.18 0 0 0 2.18-2.18v-2.94a2.18 2.18 0 0 0-2.18-2.18h-33.8a2.18 2.18 0 0 0-2.18 2.18v2.94a2.18 2.18 0 0 0 2.18 2.18z" transform="translate(-171.46 -154.71)"/><rect class="cls-16" x="106.85" y="73.7" width="13.47" height="7.3" rx="2.18" ry="2.18"/><rect class="cls-17" x="64.67" y="60.11" width="29.02" height="7.3" rx="2.18" ry="2.18"/><rect class="cls-17" x="64.67" y="86.34" width="29.02" height="7.3" rx="2.18" ry="2.18"/><rect class="cls-17" x="96.51" y="86.34" width="29.02" height="7.3" rx="2.18" ry="2.18"/><rect class="cls-17" x="64.67" y="99.27" width="23.13" height="7.3" rx="2.18" ry="2.18"/><rect class="cls-17" x="96.51" y="60.11" width="13.47" height="7.3" rx="2.18" ry="2.18"/><rect class="cls-17" x="113.09" y="60.11" width="13.47" height="7.3" rx="2.18" ry="2.18"/><path class="cls-17" d="M238.3 235.09h33.8a2.18 2.18 0 0 0 2.18-2.18V230a2.18 2.18 0 0 0-2.18-2.18h-33.8a2.18 2.18 0 0 0-2.18 2.18v2.95a2.18 2.18 0 0 0 2.18 2.14z" transform="translate(-171.46 -154.71)"/><rect class="cls-17" x="106.35" y="73.08" width="13.47" height="7.3" rx="2.18" ry="2.18"/></g></g></g></svg>