<svg id="Слой_1" xmlns="http://www.w3.org/2000/svg" viewBox="0 0 44 44"><style>.st0{fill:#fff;opacity:.5}.st0,.st1,.st2{fill-rule:evenodd;clip-rule:evenodd}.st2{opacity:.15;fill:#11cb8b}.st1{fill:#18bd7b}</style><path class="st0" d="M22 3.999c9.941 0 18 8.058 18 18s-8.059 18-18 18-18-8.059-18-18c0-9.942 8.059-18 18-18z"/><path class="st2" d="M22 0c12.15 0 22 9.849 22 22s-9.85 22-22 22S0 34.151 0 22 9.85 0 22 0z"/><path class="st1" d="M22 11.083c6.029 0 10.916 4.887 10.916 10.915 0 6.029-4.887 10.916-10.916 10.916-6.029 0-10.916-4.887-10.916-10.916 0-6.028 4.887-10.915 10.916-10.915z"/></svg>