<svg id="Слой_1" xmlns="http://www.w3.org/2000/svg" viewBox="0 0 44 44"><style>.st0{fill:#fff;opacity:.5}.st0,.st1,.st2{fill-rule:evenodd;clip-rule:evenodd}.st2{opacity:.15;fill:#11cb8b}.st1{fill:#18bd7b}</style><path class="st0" d="M22 4c9.94 0 18 8.057 18 18 0 9.94-8.06 18-18 18S4 31.94 4 22c0-9.943 8.06-18 18-18z"/><path class="st2" d="M22 0c12.15 0 22 9.85 22 22s-9.85 22-22 22S0 34.15 0 22 9.85 0 22 0z"/><path class="st1" d="M22 11.083c6.03 0 10.916 4.887 10.916 10.915 0 6.03-4.887 10.916-10.916 10.916-6.03 0-10.916-4.887-10.916-10.916 0-6.028 4.887-10.915 10.916-10.915z"/></svg>