<?xml version="1.0" encoding="utf-8"?>
<!-- Generator: Adobe Illustrator 19.0.0, SVG Export Plug-In . SVG Version: 6.00 Build 0)  -->
<svg version="1.1" id="Слой_1" xmlns="http://www.w3.org/2000/svg" xmlns:xlink="http://www.w3.org/1999/xlink" x="0px" y="0px"
	 viewBox="0 0 25 29" style="enable-background:new 0 0 25 29;" xml:space="preserve">
<style type="text/css">
	.st0{fill:#010202;}
</style>
<path class="st0" d="M24.9997997,12.9955997c0-0.6781998-0.4433994-1.2501993-1.0445004-1.4201002
	c-0.1295986-1.1423998-0.4148998-2.2518997-0.850399-3.3068991c0.4375992-0.4591002,0.5457993-1.1847005,0.2201004-1.7712007
	c-0.3261013-0.5878-0.9854012-0.8523998-1.587801-0.6863999C21.0753002,4.8909998,20.2945004,4.0791001,19.4104004,3.3908
	c0.1590004-0.6261001-0.0958004-1.3115001-0.6606007-1.6506C18.4223003,1.544,18.0408001,1.4915,17.6755009,1.5925
	c-0.2416,0.0684-0.4560013,0.1984-0.6289005,0.3771C16.0321007,1.5161,14.9647999,1.2194,13.8655996,1.0851001
	c-0.1632996-0.6251-0.7135992-1.0864-1.3656998-1.0864c-0.6521997,0-1.2024002,0.4613-1.3659,1.0864
	C10.0348997,1.2194,8.9678001,1.5164,7.9533,1.9696C7.7803001,1.7909,7.566,1.6609,7.3243999,1.5925
	C6.9590001,1.4915,6.5774999,1.544,6.2501001,1.7402C5.6852999,2.0792999,5.4303999,2.7646999,5.5893998,3.3908
	C4.7055001,4.0788999,3.9244001,4.8909998,3.2623,5.8109999c-0.6022999-0.1657-1.2614,0.0985999-1.5875,0.6863999
	C1.3491,7.0836,1.4574,7.8087001,1.8947001,8.2684002C1.4591,9.3231001,1.174,10.4336004,1.0443,11.5754995
	C0.4434,11.7456999,0.0001,12.3177004,0.0001,12.9955997c0,0.6784,0.4434,1.2504005,1.0444,1.4203005
	c0.1296,1.1428995,0.4153,2.2531996,0.8509001,3.3074007c-0.1718,0.1795998-0.2973001,0.4025993-0.3621,0.6536999
	c-0.0978,0.3797989-0.0475,0.7767982,0.1415,1.1169987c0.262,0.4717007,0.7387,0.7355003,1.2283,0.7355003
	c0.1201999,0,0.2411001-0.0156002,0.3598001-0.0485001C3.925,21.1002998,4.7054,21.9122009,5.5895,22.6000004
	c-0.1591001,0.6266994,0.0956001,1.3118,0.6606002,1.6513996c0.2223001,0.1329994,0.4653997,0.1961994,0.7054,0.1961994
	c0.369,0,0.7304997-0.1494999,0.9984999-0.4256001c0.1903005,0.0852013,0.3824,0.1648006,0.5763001,0.2394009L7.3518,28.0594997
	h-1.5987c-0.2494998,0-0.4519,0.2101994-0.4519,0.4696007c0,0.2595005,0.2024002,0.4701996,0.4519,0.4701996h13.4937
	c0.2495003,0,0.4519005-0.2106991,0.4519005-0.4701996c0-0.2594013-0.2024002-0.4696007-0.4519005-0.4696007h-1.5986996
	l-1.1784992-3.7980995c0.1938-0.0746002,0.3859997-0.1541996,0.5762997-0.2390995
	c0.2679005,0.2757988,0.6294994,0.4252987,0.9984989,0.4252987c0.2400017,0,0.4831009-0.0632,0.7054005-0.1961994
	c0.5648003-0.3395996,0.8197002-1.0249004,0.6606007-1.6513996c0.8839989-0.6877995,1.6644993-1.4997005,2.3264999-2.4190006
	c0.1187,0.0328999,0.2395992,0.0482006,0.3598003,0.0482006c0.4895,0,0.9664001-0.2635002,1.228199-0.7352009
	c0.3257999-0.5865002,0.2175007-1.3118-0.2201004-1.7714996c0.4355011-1.0541992,0.7209015-2.1641998,0.8505001-3.3069
	C24.5564003,14.2460003,24.9997997,13.6739998,24.9997997,12.9955997z M22.2957993,17.2999992
	c-0.1857986-0.0272999-0.3764992-0.0157986-0.5630989,0.0362015c-0.2144012,0.0597992-0.4073009,0.1696987-0.5689011,0.3178997
	l-1.7989998-1.0796013c0.4575996-0.945199,0.7397003-1.9966993,0.8021011-3.1090994h2.0758991
	c0.1319008,0.4061003,0.4295006,0.7330999,0.8087997,0.8940001C22.9318008,15.3744001,22.6783009,16.3605995,22.2957993,17.2999992z
	 M13.8113003,23.9668007c-0.1546001-0.3945999-0.4692001-0.7035999-0.8596001-0.8409004v-2.1588001
	c0.5052996-0.0303001,0.9976997-0.1117001,1.4723997-0.2390995l0.9078999,2.9259987
	C14.8345003,23.7968006,14.3267002,23.9011002,13.8113003,23.9668007z M11.1885996,23.9668007
	c-0.5154991-0.0657005-1.0232-0.1700001-1.5205994-0.3128014l0.9077997-2.9259987
	c0.4745998,0.1273994,0.9671001,0.2087994,1.4722004,0.2390995V23.1257
	C11.6577997,23.2632008,11.3431997,23.5722008,11.1885996,23.9668007z M3.8364,17.6539001
	c-0.3098001-0.2833996-0.7256-0.4115009-1.132-0.3528004c-0.3824-0.9394989-0.6367002-1.9264002-0.7567-2.9414997
	c0.3796999-0.1605005,0.6773999-0.4877996,0.8094001-0.8942003h2.0759001c0.0622997,1.1124001,0.3444996,2.1639004,0.802,3.1090994
	L3.8364,17.6539001z M2.7042999,8.6903c0.0646,0.0095997,0.1295002,0.0146999,0.1942,0.0146999
	c0.3418,0,0.6774001-0.1292,0.9379001-0.3671999l1.7986999,1.0796995C5.1774998,10.3622999,4.8954,11.4140997,4.8330002,12.5258999
	H2.7571001C2.6252,12.1196003,2.3276,11.7925997,1.9482,11.6323004C2.0681,10.6169004,2.3217001,9.6296997,2.7042999,8.6903z
	 M8.3594999,2.8104999c0.9038-0.3978,1.8525-0.6612999,2.8290997-0.7858999c0.1546001,0.3943,0.4692001,0.7038999,0.8595009,0.8408
	V5.0242C10.9785004,5.0886002,9.967,5.3821001,9.0581999,5.8579001L8.0198002,3.9877
	C8.2924004,3.6658001,8.4159002,3.2335,8.3594999,2.8104999z M13.8113003,2.0246
	c0.9764996,0.1245999,1.9252996,0.3880999,2.8290997,0.7862c-0.0564995,0.4226999,0.0671997,0.855,0.3397007,1.1768999
	L15.9417,5.8579001c-0.9088001-0.4758-1.9202003-0.7693-2.9899998-0.8337002V2.8654001
	C13.3421001,2.7284999,13.6567001,2.4189,13.8113003,2.0246z M21.1637993,8.3374996
	c0.1616001,0.1480007,0.3544998,0.2576008,0.5689011,0.3182001c0.1219997,0.0335007,0.2456989,0.0504007,0.3687,0.0504007
	c0.0651989,0,0.1301003-0.0054007,0.1943989-0.0148001c0.3825016,0.9392996,0.6360016,1.9258995,0.7558002,2.941
	c-0.3792992,0.1604996-0.676899,0.4872999-0.8087997,0.8935995h-2.0758991
	c-0.0622997-1.1118002-0.3445015-2.1636-0.8021011-3.1084003L21.1637993,8.3374996z M19.2616005,12.5258999h-4.4258003
	c-0.0214005-0.1152-0.0508003-0.2285995-0.0872002-0.3376999l3.8323994-2.3006001
	C18.9633007,10.6927996,19.2015991,11.5843,19.2616005,12.5258999z M12.4998999,11.4612999
	c0.8139,0,1.4758997,0.6883001,1.4758997,1.5342999c0,0.5127001-0.2427998,0.9665003-0.6147995,1.2455006l-0.4312-1.3895006
	c-0.0600004-0.1939993-0.2337999-0.3256998-0.4299002-0.3256998s-0.3697996,0.1317005-0.4300003,0.3256998l-0.4309998,1.3895006
	c-0.3719997-0.2790003-0.6148996-0.7328005-0.6148996-1.2455006C11.0240002,12.1496,11.6861,11.4612999,12.4998999,11.4612999z
	 M12.4998999,14.5304003c-0.0003996,0-0.0009003,0-0.0012999,0l0.0012999-0.0046005l0.0014,0.0046005
	C12.5008001,14.5304003,12.5003996,14.5304003,12.4998999,14.5304003z M14.2957001,11.3752003
	c-0.0734997-0.0876007-0.1527996-0.1704006-0.2374001-0.2463007l2.2126999-3.9849997
	c0.7327995,0.5120001,1.3645,1.1689997,1.8570004,1.9309998L14.2957001,11.3752003z M13.2763996,10.6576996
	c-0.1050997-0.0380993-0.2133999-0.0683994-0.3246994-0.0906V5.9658999c0.9054995,0.0616002,1.7630997,0.3092999,2.5374002,0.7068
	L13.2763996,10.6576996z M12.0481005,5.9658999v4.6011996c-0.1112003,0.0222006-0.2195005,0.0525007-0.3248005,0.0906
	L9.5108004,6.6724C10.2852001,6.2751999,11.1426001,6.0275002,12.0481005,5.9658999z M10.9413996,11.1288996
	c-0.0843992,0.0759001-0.1636992,0.1587-0.2371998,0.2463007L6.8719001,9.0748997
	C7.3643999,8.3128996,7.9960999,7.6559,8.7289,7.1438999L10.9413996,11.1288996z M10.2512999,12.1878996
	c-0.0363998,0.1094007-0.0657997,0.2228003-0.0873003,0.3380003H5.7385001
	C5.7982998,11.5843,6.0367999,10.6927996,6.4190998,9.8875999L10.2512999,12.1878996z M5.7384,13.4653997h4.4255996
	c0.0215006,0.1156006,0.0509005,0.2284002,0.0873003,0.3378l-3.8322997,2.3006001
	C6.0366998,15.2986002,5.7982998,14.4070997,5.7384,13.4653997z M10.7041998,14.6163998
	c0.0735006,0.0874004,0.1528006,0.1698999,0.2371998,0.2461004L8.7289,18.8477001
	c-0.7328-0.5118999-1.3645-1.1686001-1.8569999-1.9307003L10.7041998,14.6163998z M10.7636003,17.0622997l-0.7695999,2.4804001
	c-0.1644001-0.0679989-0.3256006-0.1431007-0.4833002-0.223999L10.7636003,17.0622997z M12.0481005,15.9822998v4.0440006
	C11.6391001,19.9979,11.2399998,19.9326992,10.8539,19.8313999L12.0481005,15.9822998z M12.4998999,23.9881992
	c0.2824001,0,0.5121002,0.2389011,0.5121002,0.5328999c0,0.2927017-0.2297001,0.5321007-0.5121002,0.5321007
	c-0.2823,0-0.5120001-0.239399-0.5120001-0.5321007C11.9878998,24.2271004,12.2175999,23.9881992,12.4998999,23.9881992z
	 M12.9517002,20.0263004v-4.0440006l1.1942997,3.8491001C13.7599001,19.9326992,13.3606997,19.9979,12.9517002,20.0263004z
	 M14.2363005,17.0622997l1.2528992,2.2560997c-0.1578999,0.0811996-0.3189001,0.1563015-0.4832993,0.2243004L14.2363005,17.0622997z
	 M14.0583,14.8625002c0.0846004-0.0762005,0.1639004-0.1587,0.2374001-0.2461004l3.8323994,2.3006001
	C17.6355,17.6791,17.0039005,18.3358002,16.2710991,18.8474007L14.0583,14.8625002z M14.7486,13.8031998
	c0.0363998-0.1097002,0.0657997-0.2221994,0.0872002-0.3378h4.4256992c-0.0599003,0.9417-0.2982998,1.8332005-0.6805992,2.6384001
	L14.7486,13.8031998z M23.5841007,13.5278997c-0.2823009,0-0.512001-0.2382994-0.512001-0.5323
	c0-0.2936001,0.2297001-0.5324001,0.512001-0.5324001c0.2824001,0,0.5119991,0.2388,0.5119991,0.5324001
	C24.0960999,13.2896004,23.8665009,13.5278997,23.5841007,13.5278997z M22.5424995,6.9675999
	c0.141201,0.2537999,0.0571003,0.5799999-0.1873989,0.7266002c-0.1184006,0.0713-0.2564011,0.0906-0.3885002,0.0531001
	c-0.1321011-0.0365-0.2425003-0.1249003-0.3108006-0.2474003c-0.0685005-0.1236-0.0867996-0.2666998-0.051199-0.4045
	c0.0352993-0.1371999,0.1199989-0.2521996,0.2384987-0.323C22.0876007,6.6255002,22.4013996,6.7129002,22.5424995,6.9675999z
	 M20.9815998,6.3288002c-0.1145992,0.1532998-0.1999989,0.3301997-0.2498989,0.5235
	c-0.0574017,0.223-0.0635014,0.4519-0.0206013,0.6719999l-1.7994003,1.0805001
	c-0.5740986-0.9039001-1.3195992-1.6788001-2.1882-2.276l1.0387001-1.8707004
	c0.091301,0.0199003,0.1841011,0.0293002,0.2775002,0.0293002c0.1230011,0,0.2467003-0.0167003,0.3687-0.0507002
	C18.5942993,4.3843999,18.7642994,4.296,18.9116993,4.177C19.6947994,4.7929001,20.3890991,5.5149999,20.9815998,6.3288002z
	 M17.9095001,2.5009c0.0440998-0.0125999,0.0888996-0.0188,0.1334-0.0188c0.0886993,0,0.1762009,0.0242,0.2551003,0.0718999
	c0.2446003,0.1469002,0.3285999,0.4728,0.1875,0.7272l0,0c-0.0683994,0.1230001-0.1788998,0.2112-0.3110008,0.2476001
	c-0.1320992,0.0372999-0.2700996,0.0183001-0.3885002-0.053c-0.1183987-0.0708001-0.2031994-0.1852-0.2385998-0.3233001
	C17.5119991,3.0150001,17.5303001,2.8719001,17.5986004,2.7488C17.6669006,2.6255,17.7772999,2.5374,17.9095001,2.5009z
	 M12.4998999,0.9385c0.2824001,0,0.5121002,0.2391,0.5121002,0.5323001c0,0.2938-0.2297001,0.5322999-0.5121002,0.5322999
	c-0.2823,0-0.5120001-0.2384999-0.5120001-0.5322999C11.9878998,1.1776,12.2175999,0.9385,12.4998999,0.9385z M6.7019,2.5539999
	c0.1185002-0.0716,0.2563-0.0904,0.3885999-0.0530999C7.2224002,2.5374,7.3329,2.6255,7.4013,2.7488
	c0.0683002,0.1231,0.0865998,0.2662001,0.0511999,0.4036999C7.4171,3.2902999,7.3323002,3.405,7.2139001,3.4758
	c-0.1185999,0.0713-0.2565999,0.0906-0.3885002,0.053C6.6932998,3.4923999,6.5827999,3.4042001,6.5144,3.2811999l0,0
	C6.3731999,3.0267999,6.4573002,2.7009001,6.7019,2.5539999z M6.0883002,4.177
	c0.1472998,0.119,0.3174,0.2076998,0.5031996,0.2596998c0.1220002,0.0339999,0.2458,0.0507002,0.3687,0.0507002
	c0.0934,0,0.1863003-0.0093999,0.2776003-0.0293002l1.0386996,1.8707004c-0.8685999,0.5971999-1.6141,1.3720999-2.1881995,2.276
	L4.2888999,7.5243001c0.0427999-0.2200999,0.0367999-0.4489999-0.0205998-0.6719999
	C4.2184,6.6589999,4.1329999,6.4821,4.0181999,6.3288002C4.6108999,5.5145001,5.3053999,4.7926998,6.0883002,4.177z
	 M2.4572999,6.9675999c0.0948-0.1712999,0.2673001-0.2666998,0.4442999-0.2666998
	c0.0869002,0,0.1748002,0.0226998,0.2552001,0.0714998c0.1183999,0.0708003,0.2031999,0.1855001,0.2384999,0.323
	c0.0354002,0.1378002,0.0173001,0.2806001-0.0511,0.4045C3.2758,7.6223998,3.1654,7.7108002,3.0332999,7.7473001
	C2.9012001,7.7848001,2.7632,7.7655001,2.6447001,7.6942c-0.1185-0.0710001-0.2032001-0.1855001-0.2385001-0.3232002
	C2.3708,7.2340002,2.3889999,7.0900002,2.4572999,6.9675999z M1.4158,12.4631996c0.2823,0,0.5120001,0.2388,0.5120001,0.5324001
	c0,0.2940006-0.2297001,0.5323-0.5120001,0.5323c-0.2824,0-0.512-0.2382994-0.512-0.5323
	C0.9038,12.7019997,1.1334,12.4631996,1.4158,12.4631996z M2.4572999,19.0240993
	c-0.0683-0.1232986-0.0864999-0.2661991-0.0511-0.4036999c0.0354002-0.1371994,0.1201-0.2524986,0.2385001-0.323l0,0
	c0.079-0.047699,0.1664999-0.0718002,0.2551999-0.0718002c0.0445001,0,0.0892,0.0059013,0.1334,0.0185013
	c0.1321001,0.0363998,0.2425001,0.1248989,0.3109,0.2476997c0.0685,0.1233006,0.0865002,0.2668991,0.0511,0.4043999
	c-0.0353,0.1373005-0.1201,0.2516994-0.2384999,0.3225002C2.9122,19.3658009,2.5985,19.2784996,2.4572999,19.0240993z
	 M4.0181999,19.6625996c0.1148-0.1534004,0.2002001-0.3304996,0.2501001-0.5235004
	c0.0573997-0.2229996,0.0633998-0.4516983,0.0205998-0.671999l1.7994003-1.0802002
	c0.5740995,0.9027996,1.3195996,1.6781998,2.1881995,2.2756996L7.2377,21.5331993
	c-0.2115998-0.044199-0.4316001-0.038599-0.6461,0.0212002c-0.1858997,0.052-0.3558998,0.1413002-0.5032997,0.2602997
	C5.3051,21.1984005,4.6108999,20.4762993,4.0181999,19.6625996z M6.7019,23.4374008
	c-0.2445998-0.1469002-0.3287001-0.4731007-0.1875-0.7272015c0.0683999-0.1229992,0.1788998-0.2108994,0.3109999-0.2476997
	c0.0441003-0.0128002,0.0888-0.0184994,0.1333003-0.0184994c0.0886998,0,0.1761999,0.0238991,0.2550998,0.0716h0.0001001
	c0.0001001,0,0.0001001,0,0.0001001,0c0.1183996,0.0709991,0.2031999,0.1863003,0.2384996,0.3237991
	c0.0353999,0.1367016,0.0172,0.2804012-0.0510998,0.403101C7.2602,23.4969006,6.9464002,23.5839996,6.7019,23.4374008z
	 M8.3603001,23.1812c0.0261002-0.1933002,0.0149002-0.3917007-0.0349998-0.5856991
	C8.2678003,22.3726997,8.1622,22.1721992,8.0195999,22.0042l1.0384998-1.8707008
	c0.2139006,0.1123009,0.4333,0.2139015,0.658,0.3050003l-0.9081001,2.9273014
	C8.6576004,23.3078995,8.5084,23.2462997,8.3603001,23.1812z M16.6987,28.0594997H8.3013l1.0890999-3.5107994
	c0.5698004,0.165699,1.1520996,0.2856998,1.7437,0.3577995c0.1636,0.6251011,0.7137003,1.0860996,1.3657999,1.0860996
	c0.6521006,0,1.2023001-0.4609985,1.3659-1.0860996c0.5916004-0.0720997,1.1738997-0.1921005,1.7438002-0.3577995
	L16.6987,28.0594997z M15.2838001,20.4384995c0.2245998-0.0910988,0.4440994-0.1926994,0.658-0.3050003L16.9803009,22.0042
	c-0.142601,0.1679993-0.2482014,0.3684998-0.3056011,0.591301c-0.0501003,0.1939983-0.0611992,0.3923988-0.035099,0.5856991
	c-0.1480999,0.0650997-0.2973003,0.1266994-0.4477005,0.1846008L15.2838001,20.4384995z M18.2980995,23.4374008
	c-0.2444992,0.1465988-0.5583,0.0594997-0.6994991-0.1949005c-0.0683002-0.1230011-0.0866013-0.2663994-0.0512009-0.4034004
	c0.0354004-0.1371994,0.1202011-0.2527008,0.2385998-0.3234997c0.0789013-0.0477009,0.1664009-0.0716,0.2552013-0.0716
	c0.0443993,0,0.0891991,0.0056992,0.1332989,0.0182991c0.1321011,0.0370007,0.2426014,0.1249008,0.3110008,0.2479
	C18.6266994,22.9643002,18.5426006,23.2908001,18.2980995,23.4374008z M18.9116001,21.8146992
	c-0.1473007-0.1189995-0.3173008-0.2079983-0.5032005-0.2602997c-0.2145004-0.0597992-0.4344997-0.0653992-0.6460991-0.0212002
	l-1.0387001-1.8705997c0.8684998-0.5974998,1.6140995-1.3729,2.1880989-2.2756996l1.7994003,1.0802002
	c-0.042799,0.2203007-0.0368004,0.4489994,0.0206013,0.671999c0.0499001,0.1930008,0.1352997,0.3701,0.2500992,0.523201
	C20.3889999,20.4762993,19.6947994,21.1984005,18.9116001,21.8146992z M22.5424995,19.0240993
	c-0.1410999,0.2544003-0.4547997,0.342001-0.6993999,0.1946011l0,0c-0.1184998-0.0705013-0.2031994-0.1849995-0.2384987-0.3225002
	c-0.0356007-0.1375008-0.0173016-0.280901,0.0509987-0.4043999h0.0002003l0,0
	c0.0683002-0.1228008,0.1786995-0.2110004,0.3108006-0.2476997c0.0440998-0.0125999,0.0888996-0.0185013,0.1332989-0.0185013
	c0.0888004,0,0.1764011,0.0241013,0.2552013,0.0718002C22.5995998,18.4438,22.6837006,18.7705002,22.5424995,19.0240993z"/>
</svg>
