<svg xmlns="http://www.w3.org/2000/svg" xmlns:xlink="http://www.w3.org/1999/xlink" preserveAspectRatio="xMidYMid" width="16" height="21" viewBox="0 0 16 21">
  <defs>
    <style>
      .cls-1 {
        fill: #19d997;
        fill-rule: evenodd;
      }
    </style>
  </defs>
  <path d="M14.184,-0.001 L1.882,-0.001 C0.880,-0.001 0.000,0.815 0.000,1.782 L0.000,19.806 C0.000,20.130 0.091,20.399 0.238,20.608 C0.413,20.856 0.695,20.999 0.997,20.999 C1.283,20.999 1.588,20.873 1.869,20.635 L7.373,16.007 C7.543,15.863 7.787,15.781 8.041,15.781 C8.295,15.781 8.539,15.863 8.709,16.007 L14.195,20.634 C14.477,20.873 14.761,20.999 15.046,20.999 C15.529,20.999 15.999,20.630 15.999,19.806 L15.999,1.782 C15.999,0.815 15.186,-0.001 14.184,-0.001 Z" class="cls-1"/>
</svg>
