<?xml version="1.0" encoding="utf-8"?>
<!-- Generator: Adobe Illustrator 19.0.0, SVG Export Plug-In . SVG Version: 6.00 Build 0)  -->
<svg version="1.1" id="Слой_1" xmlns="http://www.w3.org/2000/svg" xmlns:xlink="http://www.w3.org/1999/xlink" x="0px" y="0px"
	 viewBox="0 0 39 38" style="enable-background:new 0 0 39 38;" xml:space="preserve">
<style type="text/css">
	.st0{fill:#010202;}
</style>
<path class="st0" d="M38.5332985,20.6231003c-0.308197-0.3070011-0.6741982-0.4608002-1.0965996-0.4608002h-5.4592991v-7.1248999
	L36.1936989,8.8448c0.3087997-0.3069,0.4633026-0.6705999,0.4633026-1.0911002c0-0.4196-0.1545029-0.7833996-0.4633026-1.0902996
	c-0.3084984-0.3068004-0.6742973-0.4604001-1.0966988-0.4604001s-0.787899,0.1535997-1.0965996,0.4604001l-4.216301,4.1926999
	H9.2143002L4.9979,6.6634002C4.6890998,6.3565998,4.3237,6.2030001,3.9013,6.2030001
	c-0.4226999,0-0.7881999,0.1535997-1.0969999,0.4604001C2.4955001,6.9703002,2.3413,7.3340998,2.3413,7.7536998
	C2.3413,8.1742001,2.4955001,8.5379,2.8043001,8.8448L7.0207,13.0374002v7.1248999H1.5615
	c-0.4224,0-0.7879999,0.1537991-1.0965999,0.4608002C0.1561,20.9298,0.0017,21.2938995,0.0017,21.7138004
	c0,0.419899,0.1544,0.7838001,0.4632,1.0902996C0.7735,23.1112995,1.1391,23.2651005,1.5615,23.2651005H7.0207
	c0,2.5839996,0.4714999,4.7981987,1.4136004,6.6399002l-4.9228005,5.5011005C3.2351,35.729599,3.1092,36.1052017,3.1338,36.5326996
	c0.0242,0.4277992,0.1907001,0.7875023,0.4995,1.0789986c0.3088,0.2583008,0.6578,0.3879013,1.0477998,0.3879013
	c0.4551001,0,0.8449001-0.1697006,1.1700001-0.5090981l4.4598999-5.0166016l0.3656998,0.3394012
	c0.2275,0.2103996,0.5806007,0.4724998,1.0601006,0.7877007c0.4796,0.3148994,1.0156002,0.6296997,1.6084995,0.9453964
	c0.5932999,0.3152008,1.3001003,0.581501,2.1204004,0.7996025c0.8206997,0.218399,1.6452999,0.3274994,2.4738998,0.3274994
	V13.9594002h3.1196003v21.7140999c0.7798996,0,1.5678997-0.1049995,2.3638992-0.3148994
	c0.7963009-0.2102013,1.4623013-0.4444008,1.9987011-0.7031021c0.5360985-0.2581978,1.0644989-0.5530968,1.5838985-0.8841972
	c0.5200005-0.3311996,0.8612003-0.5617027,1.0236015-0.6909027c0.1630993-0.1301003,0.2847996-0.2346992,0.3656998-0.315197
	l4.8262978,4.7743988C33.5141983,37.8460999,33.8788986,38,34.3179016,38c0.438797,0,0.8041992-0.1539001,1.0968971-0.4603996
	c0.3078995-0.3071022,0.4628029-0.6707993,0.4628029-1.0909004c0-0.4199982-0.1549034-0.7840004-0.4628029-1.0900993
	l-5.0694981-5.0650997c1.0889988-1.9230003,1.6329994-4.265501,1.6329994-7.0280018H37.4375
	c0.4225006,0,0.7887993-0.1536999,1.0966988-0.4605999c0.3087006-0.3066998,0.4638023-0.670599,0.4638023-1.0907001
	C38.9980011,21.2940006,38.842701,20.9304008,38.5332985,20.6231003z"/>
<path class="st0" d="M25.0198002,2.2655001C23.5007992,0.7549,21.6609001-0.0007,19.4997997-0.0007
	c-2.1613007,0-4.0009995,0.7556-5.5201998,2.2662001c-1.5192003,1.5105-2.2784996,3.3403997-2.2784996,5.4892001h15.5973005
	C27.2984009,5.6061001,26.5391998,3.776,25.0198002,2.2655001z"/>
</svg>
