<svg xmlns="http://www.w3.org/2000/svg" xmlns:xlink="http://www.w3.org/1999/xlink" preserveAspectRatio="xMidYMid" width="12" height="12" viewBox="0 0 12 12">
  <defs>
    <style>
      .cls-1 {
        fill: #333;
        fill-rule: evenodd;
      }
    </style>
  </defs>
  <path d="M12.000,3.705 L12.000,10.077 C12.000,11.137 11.084,11.999 9.958,11.999 L2.042,11.999 C0.916,11.999 -0.000,11.137 -0.000,10.077 L-0.000,2.626 C-0.000,1.565 0.916,0.704 2.042,0.704 C2.249,0.704 2.417,0.861 2.417,1.057 C2.417,1.252 2.249,1.410 2.042,1.410 C1.330,1.410 0.750,1.955 0.750,2.626 L0.750,3.352 L11.250,3.352 L11.250,2.626 C11.250,1.955 10.670,1.410 9.958,1.410 C9.750,1.410 9.583,1.252 9.583,1.057 C9.583,0.861 9.750,0.704 9.958,0.704 C11.084,0.704 12.000,1.565 12.000,2.626 L12.000,3.704 C12.000,3.704 12.000,3.704 12.000,3.705 C12.000,3.705 12.000,3.705 12.000,3.705 ZM11.250,4.058 L0.750,4.058 L0.750,10.077 C0.750,10.748 1.330,11.292 2.042,11.292 L9.958,11.292 C10.670,11.292 11.250,10.748 11.250,10.077 L11.250,4.058 ZM8.252,1.940 C8.045,1.940 7.877,1.782 7.877,1.587 L7.877,0.353 C7.877,0.157 8.045,-0.001 8.252,-0.001 C8.460,-0.001 8.627,0.157 8.627,0.353 L8.627,1.587 C8.627,1.782 8.460,1.940 8.252,1.940 ZM5.816,1.940 C5.608,1.940 5.441,1.782 5.441,1.587 L5.441,0.353 C5.441,0.157 5.608,-0.001 5.816,-0.001 C6.023,-0.001 6.191,0.157 6.191,0.353 L6.191,1.587 C6.191,1.782 6.023,1.940 5.816,1.940 ZM3.378,1.940 C3.170,1.940 3.003,1.782 3.003,1.587 L3.003,0.353 C3.003,0.157 3.170,-0.001 3.378,-0.001 C3.585,-0.001 3.753,0.157 3.753,0.353 L3.753,1.587 C3.753,1.782 3.585,1.940 3.378,1.940 Z" class="cls-1"/>
</svg>
