<?xml version="1.0" encoding="utf-8"?>
<!-- Generator: Adobe Illustrator 19.0.0, SVG Export Plug-In . SVG Version: 6.00 Build 0)  -->
<svg version="1.1" id="Слой_1" xmlns="http://www.w3.org/2000/svg" xmlns:xlink="http://www.w3.org/1999/xlink" x="0px" y="0px"
	 viewBox="0 0 20.7 11" style="enable-background:new 0 0 20.7 11;" xml:space="preserve">
<style type="text/css">
	.st0{fill:#010202;}
</style>
<path class="st0" d="M20.4,2c-1.3,1.8-3,2.9-4.7,3.6c-1.7,0.7-3.6,1-5.4,1c-1.8,0-3.6-0.3-5.4-1C3.2,4.8,1.5,3.8,0.2,1.9l0,0
	C-0.1,1.4,0,0.7,0.4,0.3C0.9-0.1,1.5,0,1.8,0.5C1.9,0.6,2,0.7,2,0.8c0.5,1.6,1.8,2.9,3.3,3.7c1.5,0.8,3.2,1.2,5,1.2
	c1.7,0,3.4-0.4,5-1.2c1.5-0.8,2.8-2.1,3.3-3.7c0.2-0.6,0.8-0.9,1.3-0.7c0.5,0.2,0.8,0.9,0.6,1.5C20.6,1.7,20.5,1.8,20.4,2L20.4,2z"
	/>
<path class="st0" d="M2.2,5.9L1.1,7C0.9,7.1,0.7,7.1,0.5,6.9C0.4,6.8,0.4,6.6,0.5,6.5L1,4.9c0.2-0.4,0.6-0.7,1-0.5
	c0.4,0.2,0.6,0.7,0.4,1.1C2.4,5.7,2.3,5.8,2.2,5.9z"/>
<path class="st0" d="M11,8.3l-0.3,2.3c0,0.3-0.3,0.5-0.5,0.4c-0.2,0-0.4-0.2-0.4-0.4L9.5,8.3c-0.1-0.5,0.2-0.9,0.6-1
	C10.6,7.2,11,7.6,11,8C11,8.1,11,8.2,11,8.3z"/>
<path class="st0" d="M5.9,7.7L4.8,9.5C4.7,9.8,4.4,9.8,4.2,9.7C4,9.6,4,9.3,4,9.1L4.5,7C4.6,6.6,5,6.3,5.5,6.4C5.9,6.5,6.1,7,6,7.5
	C6,7.6,5.9,7.6,5.9,7.7z"/>
<path class="st0" d="M19.6,4.8l0.6,1.6c0.1,0.2,0,0.5-0.2,0.6c-0.1,0.1-0.3,0-0.4-0.1l-1.2-1.1c-0.3-0.3-0.4-0.8-0.1-1.2
	c0.3-0.4,0.8-0.4,1.1-0.1C19.5,4.6,19.6,4.7,19.6,4.8z"/>
<path class="st0" d="M16.2,7l0.5,2.1c0.1,0.3-0.1,0.5-0.3,0.6c-0.2,0.1-0.4,0-0.5-0.2l-1.1-1.8c-0.2-0.4-0.1-0.9,0.2-1.2
	c0.4-0.3,0.8-0.2,1.1,0.2C16.1,6.8,16.2,6.9,16.2,7z"/>
</svg>
