<?xml version="1.0" encoding="utf-8"?>
<!-- Generator: Adobe Illustrator 19.0.0, SVG Export Plug-In . SVG Version: 6.00 Build 0)  -->
<svg version="1.1" id="Слой_1" xmlns="http://www.w3.org/2000/svg" xmlns:xlink="http://www.w3.org/1999/xlink" x="0px" y="0px"
	 viewBox="0 0 16 9" style="enable-background:new 0 0 16 9;" xml:space="preserve">
<style type="text/css">
	.st0{fill:#010202;}
</style>
<path class="st0" d="M8,9C6.2,9,4.3,8.3,2.4,6.9c-1.4-1-2.3-2-2.3-2.1C0,4.6,0,4.4,0.1,4.2c0,0,0.9-1.1,2.3-2.1C4.3,0.7,6.2,0,8,0
	c1.8,0,3.7,0.7,5.6,2.1c1.4,1,2.3,2,2.3,2.1c0.1,0.2,0.1,0.4,0,0.6c0,0-0.9,1.1-2.3,2.1C11.7,8.3,9.8,9,8,9z M1.1,4.5
	c0.3,0.4,1,1,1.9,1.6C4.1,7,6,8.1,8,8.1c2,0,3.9-1,5.1-1.9c0.9-0.6,1.5-1.3,1.9-1.6c-0.3-0.4-1-1-1.9-1.6C11.9,2,10,0.9,8,0.9
	c-2,0-3.9,1-5.1,1.9C2.1,3.5,1.4,4.1,1.1,4.5z"/>
<path class="st0" d="M8,7.4c-1.5,0-2.8-1.3-2.8-2.9S6.5,1.6,8,1.6c0.7,0,1.3,0.3,1.8,0.7c0.2,0.2,0.2,0.5,0,0.7
	C9.7,3.2,9.4,3.2,9.3,3C8.9,2.7,8.5,2.5,8,2.5c-1,0-1.9,0.9-1.9,2s0.9,2,1.9,2s1.9-0.9,1.9-2c0-0.3,0.2-0.5,0.5-0.5
	c0.2,0,0.5,0.2,0.5,0.5C10.8,6.1,9.5,7.4,8,7.4z"/>
<path class="st0" d="M8,5.4C7.5,5.4,7.1,5,7.1,4.5S7.5,3.6,8,3.6c0.5,0,0.9,0.4,0.9,0.9S8.5,5.4,8,5.4z"/>
</svg>
