<?xml version="1.0" encoding="utf-8"?>
<!-- Generator: Adobe Illustrator 19.0.0, SVG Export Plug-In . SVG Version: 6.00 Build 0)  -->
<svg version="1.1" id="Слой_1" xmlns="http://www.w3.org/2000/svg" xmlns:xlink="http://www.w3.org/1999/xlink" x="0px" y="0px"
	 viewBox="-288 410.8150024 19 20.0750046" style="enable-background:new -288 410.8150024 19 20.0750046;" xml:space="preserve">
<style type="text/css">
	.st0{fill:#010202;}
</style>
<path class="st0" d="M-278.5,424.6149902c2.8999939,0,5.2999878-3.0999756,5.2999878-6.8999939
	c0-3.7999878-2.3999939-6.8999939-5.2999878-6.8999939c-1.5,0.1000061-2.7999878,0.7999878-3.7999878,2.2000122
	c-1,1.2999878-1.5,3-1.5,4.7999878C-283.8999939,421.6149902-281.5,424.6149902-278.5,424.6149902z M-278.5,412.1149902
	c2.2999878,0,4.2000122,2.5,4.2000122,5.6000061s-1.9000244,5.6000061-4.2000122,5.6000061s-4.2000122-2.5-4.2000122-5.6000061
	C-282.7000122,414.7150269-280.7999878,412.1149902-278.5,412.1149902z M-274.3999939,423.4150085
	c-0.3000183,0-0.6000061,0.3000183-0.6000061,0.6000061s0.2999878,0.5999756,0.6000061,0.5999756
	c2.2999878,0,4.1999817,2,4.1999817,4.4000244c0,0.2999878-0.2999878,0.5999756-0.5999756,0.5999756h-15.4000244
	c-0.2999878,0-0.5999756-0.2999878-0.5999756-0.5999756c0-2.4000244,1.8999939-4.4000244,4.0999756-4.4000244
	c0.3000183,0,0.6000061-0.2999878,0.6000061-0.5999756c0-0.3000183-0.3000183-0.6000061-0.6000061-0.6000061
	c-2.8999939,0-5.2999878,2.5-5.2999878,5.6000061c0,1,0.7999878,1.8999939,1.7999878,1.8999939h15.4000244
	c1,0,1.7999878-0.8000183,1.7999878-1.8999939C-269,425.9150085-271.3999939,423.4150085-274.3999939,423.4150085z"/>
</svg>
