<?xml version="1.0" encoding="utf-8"?>
<!-- Generator: Adobe Illustrator 19.0.0, SVG Export Plug-In . SVG Version: 6.00 Build 0)  -->
<svg version="1.1" id="Слой_1" xmlns="http://www.w3.org/2000/svg" xmlns:xlink="http://www.w3.org/1999/xlink" x="0px" y="0px"
	 viewBox="0 0 10.4251003 13" style="enable-background:new 0 0 10.4251003 13;" xml:space="preserve">
<style type="text/css">
	.st0{fill:#010202;}
</style>
<path class="st0" d="M5.2126999-0.0002C2.3383999-0.0002,0,2.4702001,0,5.507c0,1.7296,1.447,3.7874002,2.3097999,4.8601999
	c0.5491002,0.6830997,2.2614,2.6325998,2.9029,2.6325998c0.7755003,0,2.8888998-2.6063995,2.9098997-2.6328001
	C8.9826002,9.2953997,10.4251003,7.2391,10.4251003,5.507C10.4252005,2.4702001,8.0868998-0.0002,5.2126999-0.0002z
	 M8.5087004,5.4663c0,1.9085002-1.4697003,3.4611998-3.2763004,3.4611998c-1.8062999,0-3.2758999-1.5526996-3.2758999-3.4611998
	c0-1.9082999,1.4695001-3.4612,3.2758999-3.4612C7.039,2.0051,8.5087004,3.5580001,8.5087004,5.4663z"/>
</svg>
