<?xml version="1.0" encoding="utf-8"?>
<!-- Generator: Adobe Illustrator 19.0.0, SVG Export Plug-In . SVG Version: 6.00 Build 0)  -->
<svg version="1.1" id="Слой_1" xmlns="http://www.w3.org/2000/svg" xmlns:xlink="http://www.w3.org/1999/xlink" x="0px" y="0px"
	 viewBox="510.157 145.609 446.688 558.4269" style="enable-background:new 510.157 145.609 446.688 558.4269;"
	 xml:space="preserve">
<path d="M510.157,145.609h197.281c40.972,0,72.094,1.499,93.219,4.719c21.125,3.059,40.968,9.616,59.406,19.594
	c19.953,10.749,34.941,25.224,44.813,43.156c9.87,18.038,14.875,38.771,14.875,62.344c0,27.244-6.798,51.461-20.5,72.719
	c-13.57,21.258-32.399,36.89-56.344,47v2.906c34.454,7.317,62.087,22.036,82.813,44.438c20.757,22.428,31.125,52.618,31.125,90.531
	c0,27.75-5.239,52.227-15.75,73.219c-10.507,20.992-24.577,38.29-42.375,52.125c-20.992,16.496-44.033,28.137-69.281,35.188
	c-25.089,7.024-56.959,10.531-95.75,10.531H510.158V145.61L510.157,145.609z M649.688,247.984v118.188h17.656
	c23.945,0,40.864-0.246,50.469-0.75c9.605-0.504,19.601-3.077,29.844-7.813c11.121-5.241,18.953-12.518,23.156-21.75
	c4.23-9.339,6.406-20.123,6.406-32.281c0-9.072-2.308-18.31-6.938-27.781c-4.603-9.472-11.754-16.395-21.625-20.625
	c-9.206-4.097-20.091-6.257-32.781-6.656c-12.664-0.4-31.482-0.531-56.438-0.531h-9.75L649.688,247.984z M649.688,461.828v139.813
	h7.563c36.503,0,61.715-0.275,75.656-0.781c13.941-0.504,28.303-3.815,42.75-10.094c12.824-5.507,22.031-13.577,27.938-24.219
	c5.88-10.616,8.813-22.658,8.813-36.094c0-17.294-3.418-30.731-10.469-40.469c-7.024-9.844-17.532-17.154-31.5-22.156
	c-8.461-3.326-20.248-5.128-35.094-5.5s-34.799-0.5-59.781-0.5h-25.875H649.688z"/>
</svg>
