<svg xmlns="http://www.w3.org/2000/svg" xmlns:xlink="http://www.w3.org/1999/xlink" preserveAspectRatio="xMidYMid" width="18" height="18" viewBox="0 0 18 18">
  <defs>
    <style>
      .cls-1 {
        fill: #424242;
        fill-rule: evenodd;
      }
    </style>
  </defs>
  <path d="M2.144,2.136 C3.527,0.757 5.365,-0.002 7.321,-0.002 C7.321,-0.002 7.321,-0.002 7.321,-0.002 C9.277,-0.002 11.115,0.757 12.498,2.136 C13.881,3.515 14.643,5.348 14.643,7.299 C14.643,8.629 14.288,9.906 13.623,11.021 L17.329,14.716 C17.663,15.049 17.848,15.493 17.848,15.965 C17.848,16.436 17.663,16.880 17.329,17.213 L17.263,17.279 C16.929,17.612 16.484,17.796 16.011,17.796 C15.539,17.796 15.094,17.612 14.759,17.279 L11.054,13.583 C9.936,14.246 8.656,14.600 7.321,14.600 C5.366,14.600 3.527,13.840 2.144,12.461 C0.761,11.083 -0.000,9.249 -0.000,7.299 C-0.000,5.348 0.761,3.515 2.144,2.136 ZM15.654,16.387 C15.749,16.483 15.876,16.535 16.011,16.535 C16.146,16.535 17.896,18.100 17.992,18.005 L16.435,16.322 C16.531,16.226 16.583,16.099 16.583,15.965 C16.583,15.829 16.531,15.703 16.435,15.608 L12.875,12.057 C12.755,12.196 12.629,12.330 12.498,12.461 C12.367,12.592 12.232,12.717 12.093,12.837 L15.654,16.387 ZM3.038,11.570 C4.182,12.711 5.703,13.339 7.321,13.339 C8.939,13.339 10.460,12.711 11.604,11.570 C12.748,10.429 13.378,8.912 13.378,7.299 C13.378,5.685 12.748,4.169 11.604,3.027 C10.460,1.887 8.939,1.259 7.321,1.259 C5.703,1.259 4.182,1.887 3.038,3.027 C1.894,4.169 1.264,5.686 1.264,7.299 C1.264,8.912 1.894,10.429 3.038,11.570 Z" class="cls-1"/>
</svg>
